<?xml version="1.0" encoding="UTF-8" standalone="no"?>
<svg
   xmlns:dc="http://purl.org/dc/elements/1.1/"
   xmlns:cc="http://creativecommons.org/ns#"
   xmlns:rdf="http://www.w3.org/1999/02/22-rdf-syntax-ns#"
   xmlns:svg="http://www.w3.org/2000/svg"
   xmlns="http://www.w3.org/2000/svg"
   xmlns:sodipodi="http://sodipodi.sourceforge.net/DTD/sodipodi-0.dtd"
   xmlns:inkscape="http://www.inkscape.org/namespaces/inkscape"
   version="1.1"
   viewBox="0 0 570.75831 325.53595"
   stroke-miterlimit="10"
   id="svg2"
   inkscape:version="0.48.4 r9939"
   width="100%"
   height="100%"
   sodipodi:docname="p3-platform-diagram.svg"
   style="fill:none;stroke:none">
  <metadata
     id="metadata91">
    <rdf:RDF>
      <cc:Work
         rdf:about="">
        <dc:format>image/svg+xml</dc:format>
        <dc:type
           rdf:resource="http://purl.org/dc/dcmitype/StillImage" />
      </cc:Work>
    </rdf:RDF>
  </metadata>
  <defs
     id="defs89" />
  <sodipodi:namedview
     pagecolor="#ffffff"
     bordercolor="#666666"
     borderopacity="1"
     objecttolerance="10"
     gridtolerance="10"
     guidetolerance="10"
     inkscape:pageopacity="0"
     inkscape:pageshadow="2"
     inkscape:window-width="1855"
     inkscape:window-height="1176"
     id="namedview87"
     showgrid="false"
     units="cm"
     fit-margin-left="0.5"
     fit-margin-top="0.5"
     fit-margin-bottom="0.5"
     fit-margin-right="0"
     inkscape:zoom="1"
     inkscape:cx="244.98274"
     inkscape:cy="-152.84779"
     inkscape:window-x="65"
     inkscape:window-y="24"
     inkscape:window-maximized="1"
     inkscape:current-layer="g7" />
  <clipPath
     id="p.0">
    <path
       d="m 0,0 1152,0 0,864 L 0,864 0,0 z"
       clip-rule="nonzero"
       id="path5"
       inkscape:connector-curvature="0" />
  </clipPath>
  <g
     clip-path="url(#p.0)"
     id="g7"
     transform="matrix(0.99652778,0,0,0.99189815,-49.050826,-118.19694)">
    <rect
       style="fill:#ffe699;fill-opacity:1"
       id="rect3846"
       width="543"
       height="43.000004"
       x="17"
       y="12.53595"
       transform="matrix(1.0034843,0,0,1.008168,49.221735,119.16237)" />
    <rect
       style="fill:#ffe599;fill-rule:evenodd;stroke:none;stroke-width:1px;stroke-linecap:butt;stroke-linejoin:miter;stroke-opacity:1;fill-opacity:1"
       id="rect3068"
       width="263"
       height="157"
       x="299"
       y="114.53595"
       transform="matrix(1.0034843,0,0,1.008168,49.221735,119.16237)" />
    <path
       d="m 0,0 1152,0 0,864 -1152,0 z"
       id="path9"
       inkscape:connector-curvature="0"
       style="fill:#000000;fill-opacity:0;fill-rule:nonzero" />
    <path
       d="m 67,369 0,-187.46457 44.97638,0 0,187.46457 z"
       id="path11"
       inkscape:connector-curvature="0"
       style="fill:#9fc5e8;fill-rule:nonzero;fill-opacity:1" />
    <path
       d="m 85.40819,323.74115 -12,0 0,4.46875 -1.59375,0 0,-10.76563 1.59375,0 0,4.5 12,0 0,1.79688 z m -3.5625,-7.25534 -0.15625,-1.76563 q 1.28125,-0.1875 1.9375,-0.89062 0.640625,-0.71875 0.640625,-1.71875 0,-1.20313 -0.90625,-2.03125 -0.90625,-0.84375 -2.421875,-0.84375 -1.421875,0 -2.25,0.8125 -0.828125,0.79687 -0.828125,2.09375 0,0.79687 0.375,1.45312 0.359375,0.64063 0.953125,1.01563 l -0.203125,1.57812 -7,-1.32812 0,-6.76563 1.609375,0 0,5.4375 3.640625,0.73438 q -0.84375,-1.23438 -0.84375,-2.57813 0,-1.78125 1.234375,-3 1.234375,-1.23437 3.171875,-1.23437 1.84375,0 3.1875,1.07812 1.65625,1.3125 1.65625,3.57813 0,1.85937 -1.03125,3.03125 -1.046875,1.17187 -2.765625,1.34375 z m 3.5625,-11.31323 -1.90625,0 0,-1.90625 1.90625,0 0,1.90625 z m 0,-9.60517 -3.25,0 0,5.90625 -1.53125,0 -8.8125,-6.21875 0,-1.35937 8.8125,0 0,-1.84375 1.53125,0 0,1.84375 3.25,0 0,1.67187 z m -4.78125,0 -6.140625,0 6.140625,4.25 0,-4.25 z m 0.01563,-20.59027 0.453125,-1.79687 q 2.21875,0.5625 3.390625,2.03125 1.15625,1.46875 1.15625,3.59375 0,2.20312 -0.890625,3.57812 -0.90625,1.375 -2.59375,2.09375 -1.703125,0.71875 -3.65625,0.71875 -2.125,0 -3.703125,-0.79687 -1.578125,-0.8125 -2.390625,-2.3125 -0.828125,-1.5 -0.828125,-3.29688 0,-2.04687 1.046875,-3.4375 1.03125,-1.39062 2.90625,-1.9375 l 0.421875,1.76563 q -1.484375,0.46875 -2.15625,1.375 -0.6875,0.90625 -0.6875,2.26562 0,1.5625 0.75,2.625 0.75,1.04688 2.03125,1.48438 1.265625,0.42187 2.609375,0.42187 1.734375,0 3.03125,-0.5 1.28125,-0.51562 1.921875,-1.57812 0.640625,-1.07813 0.640625,-2.3125 0,-1.51563 -0.859375,-2.5625 -0.875,-1.04688 -2.59375,-1.42188 z m 4.765625,-10.00421 -1.453125,0 q 1.671875,1.14063 1.671875,3.125 0,0.85938 -0.328125,1.625 -0.34375,0.75 -0.84375,1.125 -0.5,0.35938 -1.234375,0.51563 -0.5,0.0937 -1.5625,0.0937 l -6.109375,0 0,-1.67188 5.46875,0 q 1.3125,0 1.765625,-0.0937 0.65625,-0.15625 1.03125,-0.67187 0.375,-0.51563 0.375,-1.26563 0,-0.75 -0.375,-1.40625 -0.390625,-0.65625 -1.046875,-0.92187 -0.671875,-0.28125 -1.9375,-0.28125 l -5.28125,0 0,-1.67188 9.859375,0 0,1.5 z m -2.9375,-3.2507 -0.265625,-1.65625 q 1,-0.14063 1.53125,-0.76563 0.515625,-0.64062 0.515625,-1.78125 0,-1.15625 -0.46875,-1.70312 -0.46875,-0.5625 -1.09375,-0.5625 -0.5625,0 -0.890625,0.48437 -0.21875,0.34375 -0.5625,1.70313 -0.46875,1.84375 -0.796875,2.5625 -0.34375,0.70312 -0.9375,1.07812 -0.609375,0.35938 -1.328125,0.35938 -0.65625,0 -1.21875,-0.29688 -0.5625,-0.3125 -0.9375,-0.82812 -0.28125,-0.39063 -0.484375,-1.0625 -0.203125,-0.67188 -0.203125,-1.4375 0,-1.17188 0.34375,-2.04688 0.328125,-0.875 0.90625,-1.28125 0.5625,-0.42187 1.515625,-0.57812 l 0.21875,1.625 q -0.75,0.10937 -1.171875,0.65625 -0.4375,0.53125 -0.4375,1.5 0,1.15625 0.390625,1.64062 0.375,0.48438 0.875,0.48438 0.328125,0 0.59375,-0.20313 0.265625,-0.20312 0.4375,-0.64062 0.09375,-0.25 0.4375,-1.46875 0.46875,-1.76563 0.765625,-2.46875 0.296875,-0.70313 0.875,-1.09375 0.578125,-0.40625 1.4375,-0.40625 0.828125,0 1.578125,0.48437 0.734375,0.48438 1.140625,1.40625 0.390625,0.92188 0.390625,2.07813 0,1.92187 -0.796875,2.9375 -0.796875,1 -2.359375,1.28125 z m 1.4375,-13.65625 1.484375,-0.23438 q 0.140625,0.70313 0.140625,1.26563 0,0.90625 -0.28125,1.40625 -0.296875,0.5 -0.75,0.70312 -0.46875,0.20313 -1.984375,0.20313 l -5.65625,0 0,1.23437 -1.3125,0 0,-1.23437 -2.4375,0 -1,-1.65625 3.4375,0 0,-1.6875 1.3125,0 0,1.6875 5.75,0 q 0.71875,0 0.921875,-0.0781 0.203125,-0.0937 0.328125,-0.29687 0.125,-0.20313 0.125,-0.57813 0,-0.26562 -0.07813,-0.73437 z m -3.421875,-0.90207 q -2.734375,0 -4.0625,-1.53125 -1.09375,-1.26562 -1.09375,-3.09375 0,-2.03125 1.34375,-3.3125 1.328125,-1.29687 3.671875,-1.29687 1.90625,0 3,0.57812 1.078125,0.5625 1.6875,1.65625 0.59375,1.07813 0.59375,2.375 0,2.0625 -1.328125,3.34375 -1.328125,1.28125 -3.8125,1.28125 z m 0,-1.71875 q 1.890625,0 2.828125,-0.82812 0.9375,-0.82813 0.9375,-2.07813 0,-1.25 -0.9375,-2.0625 -0.953125,-0.82812 -2.890625,-0.82812 -1.828125,0 -2.765625,0.82812 -0.9375,0.82813 -0.9375,2.0625 0,1.25 0.9375,2.07813 0.9375,0.82812 2.828125,0.82812 z m 4.921875,-9.28195 -9.859375,0 0,-1.5 1.390625,0 q -0.71875,-0.45313 -1.15625,-1.21875 -0.453125,-0.78125 -0.453125,-1.76563 0,-1.09375 0.453125,-1.79687 0.453125,-0.70313 1.28125,-0.98438 -1.734375,-1.17187 -1.734375,-3.04687 0,-1.46875 0.8125,-2.25 0.8125,-0.79688 2.5,-0.79688 l 6.765625,0 0,1.67188 -6.203125,0 q -1,0 -1.4375,0.15625 -0.453125,0.15625 -0.71875,0.59375 -0.265625,0.42187 -0.265625,1 0,1.03125 0.6875,1.71875 0.6875,0.6875 2.21875,0.6875 l 5.71875,0 0,1.67187 -6.40625,0 q -1.109375,0 -1.65625,0.40625 -0.5625,0.40625 -0.5625,1.34375 0,0.70313 0.375,1.3125 0.359375,0.59375 1.078125,0.85938 0.71875,0.26562 2.0625,0.26562 l 5.109375,0 0,1.67188 z"
       id="path13"
       inkscape:connector-curvature="0"
       style="fill:#000000;fill-rule:nonzero" />
    <path
       d="m 103.03319,358.7043 -0.14062,-1.6875 q 1.01562,-0.125 1.67187,-0.5625 0.65625,-0.4375 1.0625,-1.35938 0.40625,-0.9375 0.40625,-2.09375 0,-1.03125 -0.3125,-1.8125 -0.3125,-0.79687 -0.84375,-1.1875 -0.53125,-0.39062 -1.15625,-0.39062 -0.64062,0 -1.10937,0.375 -0.48438,0.375 -0.8125,1.23437 -0.21875,0.54688 -0.65625,2.42188 -0.45313,1.875 -0.85938,2.625 -0.515625,0.96875 -1.265625,1.45312 -0.75,0.46875 -1.6875,0.46875 -1.03125,0 -1.921875,-0.57812 -0.90625,-0.59375 -1.359375,-1.70313 -0.46875,-1.125 -0.46875,-2.5 0,-1.51562 0.484375,-2.67187 0.484375,-1.15625 1.4375,-1.76563 0.9375,-0.625 2.140625,-0.67187 l 0.125,1.71875 q -1.28125,0.14062 -1.9375,0.95312 -0.671875,0.79688 -0.671875,2.35938 0,1.625 0.609375,2.375 0.59375,0.75 1.4375,0.75 0.734375,0 1.203125,-0.53125 0.46875,-0.51563 0.96875,-2.70313 0.5,-2.20312 0.875,-3.01562 0.54688,-1.1875 1.39063,-1.75 0.82812,-0.57813 1.92187,-0.57813 1.09375,0 2.0625,0.625 0.95313,0.625 1.48438,1.79688 0.53125,1.15625 0.53125,2.60937 0,1.84375 -0.53125,3.09375 -0.54688,1.25 -1.625,1.96875 -1.07813,0.70313 -2.45313,0.73438 z m 1.20313,-19.5842 0.21875,-1.71875 q 1.5,0.40625 2.34375,1.51563 0.82812,1.09375 0.82812,2.8125 0,2.15625 -1.32812,3.42187 -1.32813,1.26563 -3.73438,1.26563 -2.48437,0 -3.859375,-1.26563 -1.375,-1.28125 -1.375,-3.32812 0,-1.98438 1.34375,-3.23438 1.343755,-1.25 3.796875,-1.25 0.14063,0 0.4375,0.0156 l 0,7.34375 q 1.625,-0.0937 2.48438,-0.92188 0.85937,-0.82812 0.85937,-2.0625 0,-0.90625 -0.46875,-1.54687 -0.48437,-0.65625 -1.54687,-1.04688 z m -2.70313,5.48438 0,-5.5 q -1.23437,0.10937 -1.859375,0.625 -0.96875,0.79687 -0.96875,2.07812 0,1.14063 0.78125,1.9375 0.765625,0.78125 2.046875,0.85938 z m 5.875,-9.09449 -9.859375,0 0,-1.5 1.5,0 q -1.046875,-0.57812 -1.375,-1.0625 -0.34375,-0.48437 -0.34375,-1.07812 0,-0.84375 0.546875,-1.71875 l 1.546875,0.57812 q -0.359375,0.60938 -0.359375,1.23438 0,0.54687 0.328125,0.98437 0.328125,0.42188 0.906255,0.60938 0.89062,0.28125 1.95312,0.28125 l 5.15625,0 0,1.67187 z m 0,-8.96267 -9.859375,3.75 0,-1.76563 5.906255,-2.125 q 0.95312,-0.34375 1.98437,-0.625 -0.78125,-0.21875 -1.875,-0.625 l -6.015625,-2.1875 0,-1.71875 9.859375,3.73438 0,1.5625 z m -11.6875,-6.60938 -1.90625,0 0,-1.67187 1.90625,0 0,1.67187 z m 11.6875,0 -9.859375,0 0,-1.67187 9.859375,0 0,1.67187 z m -3.60937,-10.56668 0.21875,-1.64062 q 1.6875,0.26562 2.65625,1.375 0.95312,1.10937 0.95312,2.73437 0,2.01563 -1.3125,3.25 -1.32812,1.21875 -3.79687,1.21875 -1.59375,0 -2.781255,-0.51562 -1.203125,-0.53125 -1.796875,-1.60938 -0.609375,-1.09375 -0.609375,-2.35937 0,-1.60938 0.8125,-2.625 0.8125,-1.01563 2.312505,-1.3125 l 0.25,1.625 q -1.000005,0.23437 -1.500005,0.82812 -0.5,0.59375 -0.5,1.42188 0,1.26562 0.90625,2.0625 0.906255,0.78125 2.859375,0.78125 1.98438,0 2.89063,-0.76563 0.89062,-0.76562 0.89062,-1.98437 0,-0.98438 -0.59375,-1.64063 -0.60937,-0.65625 -1.85937,-0.84375 z m 0.4375,-9.64062 0.21875,-1.71875 q 1.5,0.40625 2.34375,1.51562 0.82812,1.09375 0.82812,2.8125 0,2.15625 -1.32812,3.42188 -1.32813,1.26562 -3.73438,1.26562 -2.48437,0 -3.859375,-1.26562 -1.375,-1.28125 -1.375,-3.32813 0,-1.98437 1.34375,-3.23437 1.343755,-1.25 3.796875,-1.25 0.14063,0 0.4375,0.0156 l 0,7.34375 q 1.625,-0.0937 2.48438,-0.92187 0.85937,-0.82813 0.85937,-2.0625 0,-0.90625 -0.46875,-1.54688 -0.48437,-0.65625 -1.54687,-1.04687 z m -2.70313,5.48437 0,-5.5 q -1.23437,0.10938 -1.859375,0.625 -0.96875,0.79688 -0.96875,2.07813 0,1.14062 0.78125,1.9375 0.765625,0.78125 2.046875,0.85937 z m 2.9375,-8.43823 -0.26562,-1.65625 q 1,-0.14062 1.53125,-0.76562 0.51562,-0.64063 0.51562,-1.78125 0,-1.15625 -0.46875,-1.70313 -0.46875,-0.5625 -1.09375,-0.5625 -0.5625,0 -0.89062,0.48438 -0.21875,0.34375 -0.5625,1.70312 -0.46875,1.84375 -0.79688,2.5625 -0.34375,0.70313 -0.9375,1.07813 -0.60937,0.35937 -1.32812,0.35937 -0.656255,0 -1.218755,-0.29687 -0.5625,-0.3125 -0.9375,-0.82813 -0.28125,-0.39062 -0.484375,-1.0625 -0.203125,-0.67187 -0.203125,-1.4375 0,-1.17187 0.34375,-2.04687 0.328125,-0.875 0.90625,-1.28125 0.5625,-0.42188 1.515625,-0.57813 l 0.21875,1.625 q -0.75,0.10938 -1.171875,0.65625 -0.4375,0.53125 -0.4375,1.5 0,1.15625 0.390625,1.64063 0.375,0.48437 0.875,0.48437 0.32813,0 0.59375,-0.20312 0.26563,-0.20313 0.4375,-0.64063 0.0937,-0.25 0.4375,-1.46875 0.46875,-1.76562 0.76563,-2.46875 0.29687,-0.70312 0.875,-1.09375 0.57812,-0.40625 1.4375,-0.40625 0.82812,0 1.57812,0.48438 0.73438,0.48437 1.14063,1.40625 0.39062,0.92187 0.39062,2.07812 0,1.92188 -0.79687,2.9375 -0.79688,1 -2.35938,1.28125 z"
       id="path15"
       inkscape:connector-curvature="0"
       style="fill:#000000;fill-rule:nonzero" />
    <path
       d="m 110.14256,279.79663 q -1.1875,0.95312 -2.78125,1.60937 -1.60937,0.65625 -3.32812,0.65625 -1.5,0 -2.89063,-0.5 -1.609375,-0.5625 -3.203125,-1.76562 l 0,-0.8125 q 1.328125,0.76562 1.890625,1.01562 0.875,0.39063 1.82813,0.60938 1.1875,0.26562 2.39062,0.26562 3.04688,0 6.09375,-1.89062 l 0,0.8125 z m -6.10937,-1.82901 q -1.875,0 -2.76563,-1.03125 -0.75,-0.875 -0.75,-2.125 0,-1.39063 0.90625,-2.26563 0.90625,-0.89062 2.51563,-0.89062 1.29687,0 2.04687,0.39062 0.75,0.39063 1.17188,1.14063 0.40625,0.75 0.40625,1.625 0,1.42187 -0.90625,2.29687 -0.90625,0.85938 -2.625,0.85938 z m 0,-1.17188 q 1.29687,0 1.95312,-0.5625 0.64063,-0.5625 0.64063,-1.42187 0,-0.84375 -0.64063,-1.40625 -0.65625,-0.57813 -1.98437,-0.57813 -1.25,0 -1.89063,0.57813 -0.65625,0.5625 -0.65625,1.40625 0,0.85937 0.64063,1.42187 0.64062,0.5625 1.9375,0.5625 z m 3.375,-6.66247 -6.73438,0 0,-1.03125 0.95313,0 q -1.10938,-0.73438 -1.10938,-2.14063 0,-0.60937 0.21875,-1.10937 0.21875,-0.51563 0.57813,-0.76563 0.34375,-0.26562 0.84375,-0.35937 0.3125,-0.0625 1.10937,-0.0625 l 4.14063,0 0,1.14062 -4.09375,0 q -0.70313,0 -1.04688,0.14063 -0.34375,0.125 -0.54687,0.46875 -0.21875,0.32812 -0.21875,0.78125 0,0.73437 0.46875,1.26562 0.45312,0.53125 1.75,0.53125 l 3.6875,0 0,1.14063 z m 0,-7.38123 -9.312505,0 0,-1.14062 9.312505,0 0,1.14062 z m 2.59375,-2.94546 -1.0625,0.14062 q 0.0937,-0.375 0.0937,-0.65625 0,-0.39062 -0.125,-0.60937 -0.125,-0.23438 -0.35938,-0.375 -0.17187,-0.10938 -0.84375,-0.35938 -0.0937,-0.0312 -0.28125,-0.0937 l -6.75,2.5625 0,-1.23437 3.89063,-1.40625 q 0.75,-0.26563 1.5625,-0.48438 -0.78125,-0.20312 -1.53125,-0.46875 l -3.92188,-1.45312 0,-1.14063 6.84375,2.5625 q 1.10938,0.42188 1.53125,0.64063 0.5625,0.3125 0.82813,0.70312 0.26562,0.39063 0.26562,0.9375 0,0.32813 -0.14062,0.73438 z m -10.57813,-10.41391 -1.328125,0 0,-1.14063 1.328125,0 0,1.14063 z m 7.98438,0 -6.73438,0 0,-1.14063 6.73438,0 0,1.14063 z m 0,-3.22672 -5.85938,0 0,1 -0.875,0 0,-1 -0.71875,0 q -0.6875,0 -1.015625,-0.125 -0.4375,-0.17187 -0.71875,-0.57812 -0.28125,-0.42188 -0.28125,-1.17188 0,-0.48437 0.125,-1.0625 l 0.984375,0.17188 q -0.0625,0.35937 -0.0625,0.67187 0,0.51563 0.234375,0.73438 0.21875,0.21875 0.828125,0.21875 l 0.625,0 0,-1.3125 0.875,0 0,1.3125 5.85938,0 0,1.14062 z m 0,-7.14035 -6.73438,0 0,-1.03125 0.95313,0 q -1.10938,-0.73437 -1.10938,-2.14062 0,-0.60938 0.21875,-1.10938 0.21875,-0.51562 0.57813,-0.76562 0.34375,-0.26563 0.84375,-0.35938 0.3125,-0.0625 1.10937,-0.0625 l 4.14063,0 0,1.14063 -4.09375,0 q -0.70313,0 -1.04688,0.14062 -0.34375,0.125 -0.54687,0.46875 -0.21875,0.32813 -0.21875,0.78125 0,0.73438 0.46875,1.26563 0.45312,0.53125 1.75,0.53125 l 3.6875,0 0,1.14062 z m -2.17188,-12.02185 0.14063,-1.1875 q 1.04687,0.28125 1.625,1.04688 0.5625,0.75 0.5625,1.92187 0,1.48438 -0.90625,2.35938 -0.92188,0.85937 -2.5625,0.85937 -1.70313,0 -2.64063,-0.875 -0.9375,-0.89062 -0.9375,-2.28125 0,-1.35937 0.92188,-2.20312 0.92187,-0.85938 2.57812,-0.85938 0.10938,0 0.3125,0 l 0,5.03125 q 1.10938,-0.0625 1.70313,-0.625 0.59375,-0.5625 0.59375,-1.40625 0,-0.64062 -0.32813,-1.07812 -0.34375,-0.45313 -1.0625,-0.70313 z m -1.84375,3.75 0,-3.76562 q -0.85937,0.0781 -1.28125,0.4375 -0.65625,0.54687 -0.65625,1.40625 0,0.79687 0.53125,1.32812 0.51563,0.53125 1.40625,0.59375 z m 1.84375,-11.16247 0.14063,-1.1875 q 1.04687,0.28125 1.625,1.04687 0.5625,0.75 0.5625,1.92188 0,1.48437 -0.90625,2.35937 -0.92188,0.85938 -2.5625,0.85938 -1.70313,0 -2.64063,-0.875 -0.9375,-0.89063 -0.9375,-2.28125 0,-1.35938 0.92188,-2.20313 0.92187,-0.85937 2.57812,-0.85937 0.10938,0 0.3125,0 l 0,5.03125 q 1.10938,-0.0625 1.70313,-0.625 0.59375,-0.5625 0.59375,-1.40625 0,-0.64063 -0.32813,-1.07813 -0.34375,-0.45312 -1.0625,-0.70312 z m -1.84375,3.75 0,-3.76563 q -0.85937,0.0781 -1.28125,0.4375 -0.65625,0.54688 -0.65625,1.40625 0,0.79688 0.53125,1.32813 0.51563,0.53125 1.40625,0.59375 z m 4.01563,-10.9281 -0.84375,0 q 1,0.64062 1,1.89062 0,0.79688 -0.4375,1.48438 -0.45313,0.67187 -1.25,1.04687 -0.79688,0.375 -1.82813,0.375 -1.01562,0 -1.82812,-0.34375 -0.82813,-0.34375 -1.26563,-1.01562 -0.4375,-0.67188 -0.4375,-1.5 0,-0.60938 0.26563,-1.07813 0.25,-0.48437 0.65625,-0.78125 l -3.343755,0 0,-1.14062 9.312505,0 0,1.0625 z m -3.35938,3.60937 q 1.29688,0 1.9375,-0.53125 0.64063,-0.54687 0.64063,-1.29687 0,-0.75 -0.60938,-1.26563 -0.625,-0.53125 -1.875,-0.53125 -1.39062,0 -2.03125,0.53125 -0.65625,0.53125 -0.65625,1.3125 0,0.76563 0.625,1.28125 0.625,0.5 1.96875,0.5 z m 1.1875,-11.25623 0.14063,-1.1875 q 1.04687,0.28125 1.625,1.04688 0.5625,0.75 0.5625,1.92187 0,1.48438 -0.90625,2.35938 -0.92188,0.85937 -2.5625,0.85937 -1.70313,0 -2.64063,-0.875 -0.9375,-0.89062 -0.9375,-2.28125 0,-1.35937 0.92188,-2.20312 0.92187,-0.85938 2.57812,-0.85938 0.10938,0 0.3125,0 l 0,5.03125 q 1.10938,-0.0625 1.70313,-0.625 0.59375,-0.5625 0.59375,-1.40625 0,-0.64062 -0.32813,-1.07812 -0.34375,-0.45313 -1.0625,-0.70313 z m -1.84375,3.75 0,-3.76562 q -0.85937,0.0781 -1.28125,0.4375 -0.65625,0.54687 -0.65625,1.40625 0,0.79687 0.53125,1.32812 0.51563,0.53125 1.40625,0.59375 z m 4.01563,-10.9281 -0.84375,0 q 1,0.64063 1,1.89063 0,0.79687 -0.4375,1.48437 -0.45313,0.67188 -1.25,1.04688 -0.79688,0.375 -1.82813,0.375 -1.01562,0 -1.82812,-0.34375 -0.82813,-0.34375 -1.26563,-1.01563 -0.4375,-0.67187 -0.4375,-1.5 0,-0.60937 0.26563,-1.07812 0.25,-0.48438 0.65625,-0.78125 l -3.343755,0 0,-1.14063 9.312505,0 0,1.0625 z m -3.35938,3.60938 q 1.29688,0 1.9375,-0.53125 0.64063,-0.54688 0.64063,-1.29688 0,-0.75 -0.60938,-1.26562 -0.625,-0.53125 -1.875,-0.53125 -1.39062,0 -2.03125,0.53125 -0.65625,0.53125 -0.65625,1.3125 0,0.76562 0.625,1.28125 0.625,0.5 1.96875,0.5 z m 6.09375,-7.39685 0,0.82812 q -3.04687,-1.90625 -6.09375,-1.90625 -1.20312,0 -2.375,0.28125 -0.95312,0.20313 -1.828125,0.59375 -0.5625,0.25 -1.90625,1.03125 l 0,-0.82812 q 1.59375,-1.1875 3.203125,-1.76563 1.39063,-0.48437 2.89063,-0.48437 1.71875,0 3.32812,0.65625 1.59375,0.65625 2.78125,1.59375 z"
       id="path17"
       inkscape:connector-curvature="0"
       style="fill:#000000;fill-rule:nonzero" />
    <path
       d="m 173.49606,239.99475 168,0 0,130.51968 -168,0 z"
       id="path19"
       inkscape:connector-curvature="0"
       style="fill:#9fc5e8;fill-rule:nonzero" />
    <path
       d="m 225.18155,312.1746 0,-13.59375 1.79687,0 0,11.98437 6.70313,0 0,1.60938 -8.5,0 z m 10.45384,0 0,-13.59375 4.6875,0 q 1.57813,0 2.42188,0.1875 1.15625,0.26562 1.98437,0.96875 1.07813,0.92187 1.60938,2.34375 0.53125,1.40625 0.53125,3.21875 0,1.54687 -0.35938,2.75 -0.35937,1.1875 -0.92187,1.98437 -0.5625,0.78125 -1.23438,1.23438 -0.67187,0.4375 -1.625,0.67187 -0.95312,0.23438 -2.1875,0.23438 l -4.90625,0 z m 1.79688,-1.60938 2.90625,0 q 1.34375,0 2.10937,-0.25 0.76563,-0.25 1.21875,-0.70312 0.64063,-0.64063 1,-1.71875 0.35938,-1.07813 0.35938,-2.625 0,-2.125 -0.70313,-3.26563 -0.70312,-1.15625 -1.70312,-1.54687 -0.71875,-0.28125 -2.32813,-0.28125 l -2.85937,0 0,10.39062 z m 11.67607,1.60938 0,-13.59375 5.125,0 q 1.35937,0 2.07812,0.125 1,0.17187 1.67188,0.64062 0.67187,0.46875 1.07812,1.3125 0.42188,0.84375 0.42188,1.84375 0,1.73438 -1.10938,2.9375 -1.09375,1.20313 -3.98437,1.20313 l -3.48438,0 0,5.53125 -1.79687,0 z m 1.79687,-7.14063 3.51563,0 q 1.75,0 2.46875,-0.64062 0.73437,-0.65625 0.73437,-1.82813 0,-0.85937 -0.4375,-1.46875 -0.42187,-0.60937 -1.125,-0.79687 -0.45312,-0.125 -1.67187,-0.125 l -3.48438,0 0,4.85937 z m 21.43937,7.14063 -1.67188,0 0,-10.64063 q -0.59375,0.57813 -1.57812,1.15625 -0.98438,0.5625 -1.76563,0.85938 l 0,-1.625 q 1.40625,-0.65625 2.45313,-1.59375 1.04687,-0.9375 1.48437,-1.8125 l 1.07813,0 0,13.65625 z m 5.01635,0 0,-1.90625 1.90625,0 0,1.90625 -1.90625,0 z m 4.24579,-6.70313 q 0,-2.42187 0.5,-3.89062 0.5,-1.46875 1.46875,-2.26563 0.98438,-0.79687 2.46875,-0.79687 1.09375,0 1.92188,0.4375 0.82812,0.4375 1.35937,1.28125 0.54688,0.82812 0.84375,2.01562 0.3125,1.1875 0.3125,3.21875 0,2.39063 -0.5,3.85938 -0.48437,1.46875 -1.46875,2.28125 -0.96875,0.79687 -2.46875,0.79687 -1.96875,0 -3.07812,-1.40625 -1.35938,-1.70312 -1.35938,-5.53125 z m 1.71875,0 q 0,3.34375 0.78125,4.45313 0.79688,1.10937 1.9375,1.10937 1.15625,0 1.9375,-1.10937 0.78125,-1.125 0.78125,-4.45313 0,-3.35937 -0.78125,-4.46875 -0.78125,-1.10937 -1.95312,-1.10937 -1.15625,0 -1.82813,0.98437 -0.875,1.23438 -0.875,4.59375 z"
       id="path21"
       inkscape:connector-curvature="0"
       style="fill:#000000;fill-rule:nonzero" />
    <path
       d="m 173.49606,179 298.51968,0 0,50.99213 -298.51968,0 z"
       id="path23"
       inkscape:connector-curvature="0"
       style="fill:#ffe599;fill-rule:nonzero" />
    <path
       d="m 67,378.50394 274.4882,0 0,50.99213 -274.4882,0 z"
       id="path27"
       inkscape:connector-curvature="0"
       style="fill:#9fc5e8;fill-rule:nonzero" />
    <path
       d="m 135.7695,410.92 0,-13.59375 6.03125,0 q 1.8125,0 2.75,0.35938 0.95312,0.35937 1.51562,1.29687 0.5625,0.92188 0.5625,2.04688 0,1.45312 -0.9375,2.45312 -0.92187,0.98438 -2.89062,1.25 0.71875,0.34375 1.09375,0.67188 0.78125,0.73437 1.48437,1.8125 l 2.375,3.70312 -2.26562,0 -1.79688,-2.82812 q -0.79687,-1.21875 -1.3125,-1.875 -0.5,-0.65625 -0.90625,-0.90625 -0.40625,-0.26563 -0.8125,-0.35938 -0.3125,-0.0781 -1.01562,-0.0781 l -2.07813,0 0,6.04687 -1.79687,0 z m 1.79687,-7.59375 3.85938,0 q 1.23437,0 1.92187,-0.25 0.70313,-0.26562 1.0625,-0.82812 0.375,-0.5625 0.375,-1.21875 0,-0.96875 -0.70312,-1.57813 -0.70313,-0.625 -2.21875,-0.625 l -4.29688,0 0,4.5 z m 11.64481,7.59375 0,-13.59375 4.6875,0 q 1.57813,0 2.42188,0.1875 1.15625,0.26563 1.98437,0.96875 1.07813,0.92188 1.60938,2.34375 0.53125,1.40625 0.53125,3.21875 0,1.54688 -0.35938,2.75 -0.35937,1.1875 -0.92187,1.98438 -0.5625,0.78125 -1.23438,1.23437 -0.67187,0.4375 -1.625,0.67188 -0.95312,0.23437 -2.1875,0.23437 l -4.90625,0 z m 1.79688,-1.60937 2.90625,0 q 1.34375,0 2.10937,-0.25 0.76563,-0.25 1.21875,-0.70313 0.64063,-0.64062 1,-1.71875 0.35938,-1.07812 0.35938,-2.625 0,-2.125 -0.70313,-3.26562 -0.70312,-1.15625 -1.70312,-1.54688 -0.71875,-0.28125 -2.32813,-0.28125 l -2.85937,0 0,10.39063 z m 11.76983,1.60937 0,-13.59375 9.17188,0 0,1.59375 -7.375,0 0,4.21875 6.375,0 0,1.60938 -6.375,0 0,6.17187 -1.79688,0 z m 19.93866,0 0,-12 -4.46875,0 0,-1.59375 10.76563,0 0,1.59375 -4.5,0 0,12 -1.79688,0 z m 7.70847,0 0,-9.85937 1.5,0 0,1.5 q 0.57812,-1.04688 1.0625,-1.375 0.48437,-0.34375 1.07812,-0.34375 0.84375,0 1.71875,0.54687 l -0.57812,1.54688 q -0.60938,-0.35938 -1.23438,-0.35938 -0.54687,0 -0.98437,0.32813 -0.42188,0.32812 -0.60938,0.90625 -0.28125,0.89062 -0.28125,1.95312 l 0,5.15625 -1.67187,0 z m 6.24392,-11.6875 0,-1.90625 1.67188,0 0,1.90625 -1.67188,0 z m 0,11.6875 0,-9.85937 1.67188,0 0,9.85937 -1.67188,0 z m 4.12922,3.78125 0,-13.64062 1.53125,0 0,1.28125 q 0.53125,-0.75 1.20312,-1.125 0.6875,-0.375 1.64063,-0.375 1.26562,0 2.23437,0.65625 0.96875,0.64062 1.45313,1.82812 0.5,1.1875 0.5,2.59375 0,1.51563 -0.54688,2.73438 -0.54687,1.20312 -1.57812,1.84375 -1.03125,0.64062 -2.17188,0.64062 -0.84375,0 -1.51562,-0.34375 -0.65625,-0.35937 -1.07813,-0.89062 l 0,4.79687 -1.67187,0 z m 1.51562,-8.65625 q 0,1.90625 0.76563,2.8125 0.78125,0.90625 1.875,0.90625 1.10937,0 1.89062,-0.9375 0.79688,-0.9375 0.79688,-2.92187 0,-1.875 -0.78125,-2.8125 -0.76563,-0.9375 -1.84375,-0.9375 -1.0625,0 -1.89063,1 -0.8125,1 -0.8125,2.89062 z m 8.82883,4.875 0,-13.59375 1.67187,0 0,13.59375 -1.67187,0 z m 10.92608,-3.17187 1.71875,0.21875 q -0.40625,1.5 -1.51562,2.34375 -1.09375,0.82812 -2.8125,0.82812 -2.15625,0 -3.42188,-1.32812 -1.26562,-1.32813 -1.26562,-3.73438 0,-2.48437 1.26562,-3.85937 1.28125,-1.375 3.32813,-1.375 1.98437,0 3.23437,1.34375 1.25,1.34375 1.25,3.79687 0,0.14063 -0.0156,0.4375 l -7.34375,0 q 0.0937,1.625 0.92187,2.48438 0.82813,0.85937 2.0625,0.85937 0.90625,0 1.54688,-0.46875 0.65625,-0.48437 1.04687,-1.54687 z m -5.48437,-2.70313 5.5,0 q -0.10938,-1.23437 -0.625,-1.85937 -0.79688,-0.96875 -2.07813,-0.96875 -1.14062,0 -1.9375,0.78125 -0.78125,0.76562 -0.85937,2.04687 z m 13.90277,1.5 1.6875,-0.14062 q 0.125,1.01562 0.5625,1.67187 0.4375,0.65625 1.35937,1.0625 0.9375,0.40625 2.09375,0.40625 1.03125,0 1.8125,-0.3125 0.79688,-0.3125 1.1875,-0.84375 0.39063,-0.53125 0.39063,-1.15625 0,-0.64062 -0.375,-1.10937 -0.375,-0.48438 -1.23438,-0.8125 -0.54687,-0.21875 -2.42187,-0.65625 -1.875,-0.45313 -2.625,-0.85938 -0.96875,-0.51562 -1.45313,-1.26562 -0.46875,-0.75 -0.46875,-1.6875 0,-1.03125 0.57813,-1.92188 0.59375,-0.90625 1.70312,-1.35937 1.125,-0.46875 2.5,-0.46875 1.51563,0 2.67188,0.48437 1.15625,0.48438 1.76562,1.4375 0.625,0.9375 0.67188,2.14063 l -1.71875,0.125 q -0.14063,-1.28125 -0.95313,-1.9375 -0.79687,-0.67188 -2.35937,-0.67188 -1.625,0 -2.375,0.60938 -0.75,0.59375 -0.75,1.4375 0,0.73437 0.53125,1.20312 0.51562,0.46875 2.70312,0.96875 2.20313,0.5 3.01563,0.875 1.1875,0.54688 1.75,1.39063 0.57812,0.82812 0.57812,1.92187 0,1.09375 -0.625,2.0625 -0.625,0.95313 -1.79687,1.48438 -1.15625,0.53125 -2.60938,0.53125 -1.84375,0 -3.09375,-0.53125 -1.25,-0.54688 -1.96875,-1.625 -0.70312,-1.07813 -0.73437,-2.45313 z m 16.49045,2.875 0.23437,1.48438 q -0.70312,0.14062 -1.26562,0.14062 -0.90625,0 -1.40625,-0.28125 -0.5,-0.29687 -0.70313,-0.75 -0.20312,-0.46875 -0.20312,-1.98437 l 0,-5.65625 -1.23438,0 0,-1.3125 1.23438,0 0,-2.4375 1.65625,-1 0,3.4375 1.6875,0 0,1.3125 -1.6875,0 0,5.75 q 0,0.71875 0.0781,0.92187 0.0937,0.20313 0.29688,0.32813 0.20312,0.125 0.57812,0.125 0.26563,0 0.73438,-0.0781 z m 0.90204,-3.42187 q 0,-2.73438 1.53125,-4.0625 1.26562,-1.09375 3.09375,-1.09375 2.03125,0 3.3125,1.34375 1.29687,1.32812 1.29687,3.67187 0,1.90625 -0.57812,3 -0.5625,1.07813 -1.65625,1.6875 -1.07813,0.59375 -2.375,0.59375 -2.0625,0 -3.34375,-1.32812 -1.28125,-1.32813 -1.28125,-3.8125 z m 1.71875,0 q 0,1.89062 0.82812,2.82812 0.82813,0.9375 2.07813,0.9375 1.25,0 2.0625,-0.9375 0.82812,-0.95312 0.82812,-2.89062 0,-1.82813 -0.82812,-2.76563 -0.82813,-0.9375 -2.0625,-0.9375 -1.25,0 -2.07813,0.9375 -0.82812,0.9375 -0.82812,2.82813 z m 9.26635,4.92187 0,-9.85937 1.5,0 0,1.5 q 0.57813,-1.04688 1.0625,-1.375 0.48438,-0.34375 1.07813,-0.34375 0.84375,0 1.71875,0.54687 l -0.57813,1.54688 q -0.60937,-0.35938 -1.23437,-0.35938 -0.54688,0 -0.98438,0.32813 -0.42187,0.32812 -0.60937,0.90625 -0.28125,0.89062 -0.28125,1.95312 l 0,5.15625 -1.67188,0 z m 12.97831,-3.17187 1.71875,0.21875 q -0.40625,1.5 -1.51563,2.34375 -1.09375,0.82812 -2.8125,0.82812 -2.15625,0 -3.42187,-1.32812 -1.26563,-1.32813 -1.26563,-3.73438 0,-2.48437 1.26563,-3.85937 1.28125,-1.375 3.32812,-1.375 1.98438,0 3.23438,1.34375 1.25,1.34375 1.25,3.79687 0,0.14063 -0.0156,0.4375 l -7.34375,0 q 0.0937,1.625 0.92188,2.48438 0.82812,0.85937 2.0625,0.85937 0.90625,0 1.54687,-0.46875 0.65625,-0.48437 1.04688,-1.54687 z m -5.48438,-2.70313 5.5,0 q -0.10937,-1.23437 -0.625,-1.85937 -0.79687,-0.96875 -2.07812,-0.96875 -1.14063,0 -1.9375,0.78125 -0.78125,0.76562 -0.85938,2.04687 z"
       id="path29"
       inkscape:connector-curvature="0"
       style="fill:#000000;fill-rule:nonzero" />
    <path
       d="m 357.49606,240.00787 250.51968,0 0,33.98425 -250.51968,0 z"
       id="path31"
       inkscape:connector-curvature="0"
       style="fill:#000000;fill-rule:nonzero;fill-opacity:0" />
    <path
       d="m 357.49606,388 0,-99.24411 45.98425,0 0,99.24411 z"
       id="path35"
       inkscape:connector-curvature="0"
       style="fill:#fffe7b;fill-rule:nonzero;fill-opacity:1" />
    <path
       d="m 419.48032,388 0,-99.24411 45.98425,0 0,99.24411 z"
       id="path39"
       inkscape:connector-curvature="0"
       style="fill:#fffe7b;fill-rule:nonzero;fill-opacity:1" />
    <path
       d="m 509.08136,388 0,-99.24411 45.98425,0 0,99.24411 z"
       id="path43"
       inkscape:connector-curvature="0"
       style="fill:#fffe7b;fill-rule:nonzero;fill-opacity:1" />
    <path
       d="m 473.08054,305.39172 36,0 0,33.98425 -36,0 z"
       id="path47"
       inkscape:connector-curvature="0"
       style="fill:#000000;fill-opacity:0;fill-rule:nonzero" />
    <path
       d="m 483.7993,332.31174 0,-1.90625 1.90625,0 0,1.90625 -1.90625,0 z m 5.18332,0 0,-1.90625 1.90625,0 0,1.90625 -1.90625,0 z m 5.18329,0 0,-1.90625 1.90625,0 0,1.90625 -1.90625,0 z"
       id="path49"
       inkscape:connector-curvature="0"
       style="fill:#000000;fill-rule:nonzero" />
    <path
       d="m 67,137.02362 553.98425,0 0,33.98425 -553.98425,0 z"
       id="path51"
       inkscape:connector-curvature="0"
       style="fill:#000000;fill-rule:nonzero;fill-opacity:0" />
    <path
       d="m 562.0079,388 0,-99.24411 45.98425,0 0,99.24411 z"
       id="path55"
       inkscape:connector-curvature="0"
       style="fill:#fffe7b;fill-rule:nonzero;fill-opacity:1" />
    <path
       d="m 585,388 0,27.49606"
       id="path61"
       inkscape:connector-curvature="0"
       style="fill:#000000;fill-opacity:0;fill-rule:nonzero" />
    <path
       d="m 585,388 0,27.49606"
       id="path63"
       inkscape:connector-curvature="0"
       style="stroke:#000000;stroke-width:2;stroke-linecap:butt;stroke-linejoin:round" />
    <path
       d="m 585,415.00525 36,0"
       id="path65"
       inkscape:connector-curvature="0"
       style="fill:#000000;fill-opacity:0;fill-rule:nonzero" />
    <path
       d="m 585,415.00525 36,0"
       id="path67"
       inkscape:connector-curvature="0"
       style="stroke:#000000;stroke-width:2;stroke-linecap:butt;stroke-linejoin:round" />
    <path
       d="M 620.98425,415.00525 619.97638,207.00527"
       id="path69"
       inkscape:connector-curvature="0"
       style="fill:#000000;fill-opacity:0;fill-rule:nonzero" />
    <path
       d="M 620.98425,415.00525 619.97638,207.00527"
       id="path71"
       inkscape:connector-curvature="0"
       style="stroke:#000000;stroke-width:2;stroke-linecap:butt;stroke-linejoin:round" />
    <path
       d="m 621,206.01181 -50.99213,-1.00787"
       id="path73"
       inkscape:connector-curvature="0"
       style="fill:#000000;fill-opacity:0;fill-rule:nonzero" />
    <path
       d="m 621,206.01181 -50.99213,-1.00787"
       id="path75"
       inkscape:connector-curvature="0"
       style="stroke:#000000;stroke-width:2;stroke-linecap:butt;stroke-linejoin:round" />
    <path
       d="m 570.50134,205.50131 0.50391,28.50394"
       id="path77"
       inkscape:connector-curvature="0"
       style="fill:#000000;fill-opacity:0;fill-rule:nonzero" />
    <path
       d="m 570.50134,205.50131 0.29181,16.5058"
       id="path79"
       inkscape:connector-curvature="0"
       style="stroke:#000000;stroke-width:2;stroke-linecap:butt;stroke-linejoin:round" />
    <path
       d="m 567.4902,222.06552 3.46338,9.01639 3.14252,-9.13318 z"
       id="path81"
       inkscape:connector-curvature="0"
       style="fill:#000000;fill-rule:evenodd;stroke:#000000;stroke-width:2;stroke-linecap:butt" />
    <path
       d="m 120.24934,369 0,-187.49606 44.97638,0 0,187.49606 z"
       id="path83"
       inkscape:connector-curvature="0"
       style="fill:#9fc5e8;fill-rule:nonzero" />
    <path
       d="m 145.28253,327.79703 -0.14063,-1.6875 q 1.01563,-0.125 1.67188,-0.5625 0.65625,-0.4375 1.0625,-1.35938 0.40625,-0.9375 0.40625,-2.09375 0,-1.03125 -0.3125,-1.8125 -0.3125,-0.79687 -0.84375,-1.1875 -0.53125,-0.39062 -1.15625,-0.39062 -0.64063,0 -1.10938,0.375 -0.48437,0.375 -0.8125,1.23437 -0.21875,0.54688 -0.65625,2.42188 -0.45312,1.875 -0.85937,2.625 -0.51563,0.96875 -1.26563,1.45312 -0.75,0.46875 -1.6875,0.46875 -1.03125,0 -1.92187,-0.57812 -0.90625,-0.59375 -1.35938,-1.70313 -0.46875,-1.125 -0.46875,-2.5 0,-1.51562 0.48438,-2.67187 0.48437,-1.15625 1.4375,-1.76563 0.9375,-0.625 2.14062,-0.67187 l 0.125,1.71875 q -1.28125,0.14062 -1.9375,0.95312 -0.67187,0.79688 -0.67187,2.35938 0,1.625 0.60937,2.375 0.59375,0.75 1.4375,0.75 0.73438,0 1.20313,-0.53125 0.46875,-0.51563 0.96875,-2.70313 0.5,-2.20312 0.875,-3.01562 0.54687,-1.1875 1.39062,-1.75 0.82813,-0.57813 1.92188,-0.57813 1.09375,0 2.0625,0.625 0.95312,0.625 1.48437,1.79688 0.53125,1.15625 0.53125,2.60937 0,1.84375 -0.53125,3.09375 -0.54687,1.25 -1.625,1.96875 -1.07812,0.70313 -2.45312,0.73438 z m 4.375,-13.05295 -13.59375,0 0,-5.125 q 0,-1.35937 0.125,-2.07812 0.17187,-1 0.64062,-1.67188 0.46875,-0.67187 1.3125,-1.07812 0.84375,-0.42188 1.84375,-0.42188 1.73438,0 2.9375,1.10938 1.20313,1.09375 1.20313,3.98437 l 0,3.48438 5.53125,0 0,1.79687 z m -7.14063,-1.79687 0,-3.51563 q 0,-1.75 -0.64062,-2.46875 -0.65625,-0.73437 -1.82813,-0.73437 -0.85937,0 -1.46875,0.4375 -0.60937,0.42187 -0.79687,1.125 -0.125,0.45312 -0.125,1.67187 l 0,3.48438 4.85937,0 z m 7.14063,-9.1467 -13.59375,-5.23438 0,-1.9375 13.59375,-5.5625 0,2.04688 -4.125,1.59375 0,5.6875 4.125,1.48437 0,1.92188 z m -5.57813,-3.92188 0,-4.60937 -3.78125,1.40625 q -1.70312,0.65625 -2.8125,0.96875 1.3125,0.26562 2.59375,0.73437 l 4,1.5 z m 5.57813,-10.05294 -13.59375,0 0,-6.03125 q 0,-1.8125 0.35937,-2.75 0.35938,-0.95313 1.29688,-1.51563 0.92187,-0.5625 2.04687,-0.5625 1.45313,0 2.45313,0.9375 0.98437,0.92188 1.25,2.89063 0.34375,-0.71875 0.67187,-1.09375 0.73438,-0.78125 1.8125,-1.48438 l 3.70313,-2.375 0,2.26563 -2.82813,1.79687 q -1.21875,0.79688 -1.875,1.3125 -0.65625,0.5 -0.90625,0.90625 -0.26562,0.40625 -0.35937,0.8125 -0.0781,0.3125 -0.0781,1.01563 l 0,2.07812 6.04688,0 0,1.79688 z m -7.59375,-1.79688 0,-3.85937 q 0,-1.23438 -0.25,-1.92188 -0.26563,-0.70312 -0.82813,-1.0625 -0.5625,-0.375 -1.21875,-0.375 -0.96875,0 -1.57812,0.70313 -0.625,0.70312 -0.625,2.21875 l 0,4.29687 4.5,0 z m 6.14062,-21.94171 q 0.85938,-1.26563 1.26563,-2.3125 l 1.25,0.53125 q -0.53125,1.45312 -1.67188,2.92187 0.84375,1.5 0.84375,3.32813 0,1.84375 -0.89062,3.35937 -0.89063,1.5 -2.5,2.3125 -1.625,0.8125 -3.64063,0.8125 -2.01562,0 -3.65625,-0.8125 -1.65625,-0.82812 -2.51562,-2.32812 -0.875,-1.51563 -0.875,-3.375 0,-1.89063 0.90625,-3.39063 0.89062,-1.51562 2.5,-2.3125 1.60937,-0.79687 3.625,-0.79687 1.6875,0 3.03125,0.51562 1.32812,0.51563 2.32812,1.54688 z m -2.29687,3.95312 q 0.42187,-1.5625 1.29687,-2.5625 -1.45312,-1.59375 -4.35937,-1.59375 -1.65625,0 -2.875,0.5625 -1.23438,0.5625 -1.92188,1.64063 -0.6875,1.07812 -0.6875,2.42187 0,2.01563 1.39063,3.34375 1.375,1.32813 4.10937,1.32813 2.65625,0 4.07813,-1.3125 1.40625,-1.3125 1.40625,-3.35938 0,-0.95312 -0.35938,-1.8125 -0.54687,0.84375 -0.78125,1.78125 l -1.29687,-0.4375 z m 3.75,-8.08953 -13.59375,0 0,-1.79688 11.98437,0 0,-6.70312 1.60938,0 0,8.5 z m 0,-21.24653 0,1.67188 -10.64063,0 q 0.57813,0.59375 1.15625,1.57812 0.5625,0.98438 0.85938,1.76563 l -1.625,0 q -0.65625,-1.40625 -1.59375,-2.45313 -0.9375,-1.04687 -1.8125,-1.48437 l 0,-1.07813 13.65625,0 z m 0,-5.01635 -1.90625,0 0,-1.90625 1.90625,0 0,1.90625 z m 0,-10.54267 0,1.67188 -10.64063,0 q 0.57813,0.59375 1.15625,1.57812 0.5625,0.98438 0.85938,1.76563 l -1.625,0 q -0.65625,-1.40625 -1.59375,-2.45313 -0.9375,-1.04687 -1.8125,-1.48437 l 0,-1.07813 13.65625,0 z"
       id="path85"
       inkscape:connector-curvature="0"
       style="fill:#000000;fill-rule:nonzero" />
    <path
       style="fill:#000000;fill-opacity:0"
       d="m 307.90928,217.28374 0,-48.5 22.5,0 22.5,0 0,48.5 0,48.5 -22.5,0 -22.5,0 0,-48.5 z m 28.88217,31.55013 c -0.12669,-4.22213 -0.6106,-6.11568 -1.66647,-6.52085 -1.27775,-0.49032 -1.29144,-0.81525 -0.0969,-2.30013 0.76506,-0.95103 1.38881,-3.52915 1.38612,-5.72915 -0.005,-3.7582 -0.19623,-4.01856 -3.1698,-4.30701 -1.74069,-0.16885 -3.43627,-1.01422 -3.76796,-1.87859 -0.49292,-1.28453 -0.0554,-1.46205 2.39519,-0.97193 3.39711,0.67942 4.92772,-1.10291 4.57883,-5.33186 -0.18634,-2.25874 -0.56838,-2.45822 -4.12327,-2.15297 -5.07321,0.43563 -5.58184,0.81321 -5.3769,3.99153 0.44648,6.92425 -0.0672,10.00923 -1.71959,10.32751 -1.57146,0.30269 -1.57146,0.43046 0,2.00189 0.92322,0.92322 1.67859,2.17484 1.67859,2.78139 0,0.60655 0.68823,1.36691 1.52939,1.68969 1.32103,0.50693 1.28718,0.76399 -0.24843,1.88686 -2.24768,1.64354 -0.80471,3.27167 1.57981,1.78252 2.98717,-1.86552 4.75495,0.0218 4.31745,4.60936 -0.49949,5.23767 -3.17822,5.71944 -3.17822,0.57161 0,-1.925 -0.45,-3.5 -1,-3.5 -0.55,0 -1,1.575 -1,3.5 0,2.44445 -0.45238,3.5 -1.5,3.5 -1.04762,0 -1.5,-1.05555 -1.5,-3.5 0,-1.925 -0.45,-3.5 -1,-3.5 -0.55,0 -1,2.025 -1,4.5 l 0,4.5 6.53035,0 6.53035,0 -0.17853,-5.94987 z m -1.4536,-31.62156 c 1.85909,-1.85909 1.87504,-1.99275 0.53625,-4.49431 -1.48908,-2.78236 -3.11839,-2.39432 -2.37546,0.56574 0.50793,2.02376 0.25756,2.5 -1.31429,2.5 -2.65395,0 -3.48202,-1.04572 -2.12389,-2.68216 0.6236,-0.75139 0.85557,-1.64442 0.51549,-1.98451 -0.85314,-0.85313 -3.66667,1.61589 -3.66667,3.21769 0,1.90918 2.85436,4.44898 5,4.44898 1.02143,0 2.56429,-0.70714 3.42857,-1.57143 l 0,0 z m 1.02143,-8.55491 c 0.59463,-0.54685 0.51001,-1.31364 -0.22621,-2.04986 -0.87308,-0.87309 -0.88674,-1.525 -0.053,-2.52962 1.94697,-2.34596 -0.57905,-6.29418 -4.02694,-6.29418 -3.86138,0 -5.49527,2.12366 -4.63775,6.02793 0.58618,2.66884 0.36505,3.193 -1.55941,3.69625 -2.05254,0.53676 -2.09853,0.69165 -0.54304,1.82905 1.81251,1.32534 9.37191,0.86028 11.04632,-0.67957 l 0,0 z m 0.55,-12.87366 c 0,-0.55 -1.575,-1 -3.5,-1 -2.44444,0 -3.5,-0.45238 -3.5,-1.5 0,-0.825 -0.675,-1.5 -1.5,-1.5 -0.93333,0 -1.5,0.94445 -1.5,2.5 0,2.33333 0.33333,2.5 5,2.5 2.75,0 5,-0.45 5,-1 z m -8.36163,-10.5 c -0.45872,-1.19542 0.33175,-1.5 3.89301,-1.5 2.45774,0 4.46862,-0.45 4.46862,-1 0,-0.5641 -2.83333,-1 -6.5,-1 -3.575,0 -6.5,0.30207 -6.5,0.67126 0,1.06558 3.21284,4.32874 4.26198,4.32874 0.5236,0 0.69298,-0.675 0.37639,-1.5 z"
       id="path3838"
       inkscape:connector-curvature="0"
       transform="matrix(1.0034843,0,0,1.008168,49.221735,119.16237)" />
    <path
       style="fill:#000000;fill-opacity:0"
       d="m 368.90928,217.28374 0,-48.5 22.5,0 22.5,0 0,48.5 0,48.5 -22.5,0 -22.5,0 0,-48.5 z m 29,31.55902 c 0,-3.26754 -0.47185,-6.2326 -1.04856,-6.58903 -0.64415,-0.39811 -0.6979,-1.09581 -0.13937,-1.80902 0.50005,-0.63853 0.97554,-3.29847 1.05663,-5.91097 0.14308,-4.609 0.0613,-4.75 -2.75364,-4.75 -1.59559,0 -3.14322,-0.631 -3.43917,-1.40223 -0.72723,-1.89512 0.35801,-2.81452 1.85535,-1.57184 2.29332,1.90328 4.46876,-0.0197 4.46876,-3.95015 l 0,-3.71024 -4.25,0.56931 c -4.62798,0.61995 -4.40863,0.1342 -4.65811,10.31515 -0.0643,2.62583 -0.54156,3.75 -1.59189,3.75 -1.82126,0 -1.96942,1.60031 -0.25,2.70031 2.31341,1.48001 3.7142,4.93549 2.495,6.15469 -1.59094,1.59094 -0.25739,2.48959 1.94518,1.31081 3.1631,-1.69284 4.92533,0.17718 4.48804,4.76258 -0.49949,5.23767 -3.17822,5.71944 -3.17822,0.57161 0,-1.925 -0.45,-3.5 -1,-3.5 -0.55,0 -1,1.575 -1,3.5 0,2.44445 -0.45238,3.5 -1.5,3.5 -1.04762,0 -1.5,-1.05555 -1.5,-3.5 0,-1.925 -0.45,-3.5 -1,-3.5 -0.55,0 -1,2.025 -1,4.5 l 0,4.5 6,0 6,0 0,-5.94098 z m -1.58179,-30.66601 c 2.07654,-0.79684 2.10648,-6.25444 0.0387,-7.04793 -0.84872,-0.32569 -1.86122,-0.24996 -2.25,0.16829 -0.38878,0.41824 -0.14437,0.96133 0.54313,1.20687 1.93508,0.6911 1.47467,3.27976 -0.58333,3.27976 -2.57781,0 -3.35142,-1.07246 -1.9723,-2.7342 0.91609,-1.10383 0.85875,-1.61963 -0.25867,-2.3267 -1.01251,-0.64069 -0.34611,-0.91299 2.26081,-0.92379 l 3.69651,-0.0153 -0.19651,-5.75 c -0.18812,-5.50452 -0.31649,-5.76376 -3.00698,-6.07226 -3.60733,-0.41362 -5.84842,1.47045 -5.64108,4.74244 0.27535,4.3453 0.0173,5.07863 -1.79845,5.11162 -1.56621,0.0285 -1.54144,0.18944 0.23588,1.53273 1.34723,1.01823 1.88871,2.42728 1.68374,4.38142 -0.40811,3.89069 3.09607,6.04053 7.24859,4.44706 l 0,0 z m 1.58179,-22.32965 c 0,-0.51515 -1.4625,-1.07765 -3.25,-1.25 -1.94559,-0.18759 -3.14966,-0.81506 -3,-1.56336 0.1375,-0.6875 -0.425,-1.25 -1.25,-1.25 -0.93333,0 -1.5,0.94445 -1.5,2.5 0,2.2963 0.36667,2.5 4.5,2.5 2.475,0 4.5,-0.42149 4.5,-0.93664 z m -8,-9.48003 c 0,-0.77916 -0.5625,-1.62291 -1.25,-1.875 -0.94597,-0.34685 -0.96977,-0.7568 -0.0978,-1.68551 0.89867,-0.95717 1.86641,-0.54462 4.39831,1.875 1.78538,1.7062 3.6294,3.10218 4.09782,3.10218 0.46843,0 0.85169,-1.8 0.85169,-4 0,-2.2 -0.45,-4 -1,-4 -0.55,0 -1,0.97844 -1,2.17432 l 0,2.17431 -2.40214,-2.25669 c -3.06928,-2.88345 -6.96786,-2.50901 -7.42462,0.7131 -0.3279,2.31305 1.30818,5.19496 2.9492,5.19496 0.48266,0 0.87756,-0.6375 0.87756,-1.41667 l 0,0 z"
       id="path3840"
       inkscape:connector-curvature="0"
       transform="matrix(1.0034843,0,0,1.008168,49.221735,119.16237)" />
    <path
       style="fill:#000000;fill-opacity:0"
       d="m 458.90928,217.28374 0,-48.5 22.5,0 22.5,0 0,48.5 0,48.5 -22.5,0 -22.5,0 0,-48.5 z m 28.79513,33.4099 c 0.21708,-4.11164 -0.11645,-5.93168 -1.26109,-6.88165 -1.3999,-1.16181 -1.37948,-1.42078 0.2033,-2.57814 2.31775,-1.69478 0.73028,-3.22323 -1.74329,-1.67847 -1.05324,0.65776 -2.60777,0.93008 -3.45452,0.60516 -2.70092,-1.03644 -1.65897,-2.24618 2.21047,-2.56643 3.43103,-0.28397 3.75,-0.56554 3.75,-3.31037 0,-2.66522 -0.36945,-3.03547 -3.31071,-3.31788 -2.01569,-0.19355 -3.14859,-0.78028 -2.89625,-1.5 0.22794,-0.65017 1.18865,-1.04223 2.13489,-0.87125 2.61232,0.47203 4.44424,-1.60205 4.34977,-4.92478 -0.0828,-2.91113 -0.19576,-2.97592 -4.68126,-2.68461 l -4.59644,0.29852 -0.21771,6.92103 c -0.13586,4.31911 -0.69977,7.23267 -1.5,7.75 -0.82117,0.53087 -0.92268,1.09868 -0.28229,1.57897 2.02753,1.52065 3.82659,5.64114 2.63624,6.03792 -1.28115,0.42705 -1.57268,3.21208 -0.33624,3.21208 0.44,0 1.2947,-0.4947 1.89934,-1.09934 0.60463,-0.60463 1.94417,-0.83119 2.97675,-0.50346 1.5181,0.48182 1.80435,1.3621 1.49563,4.59933 -0.4614,4.83819 -3.17172,5.69569 -3.17172,1.00347 0,-1.65 -0.45,-3 -1,-3 -0.55,0 -1,1.35 -1,3 0,3.99798 -1.7887,3.85647 -2.18664,-0.17299 -0.54861,-5.55505 -2.81336,-4.63946 -2.81336,1.13738 l 0,5.13105 6.25,-0.29772 6.25,-0.29772 0.29513,-5.5901 z m -0.99513,-32.1099 c 1.6551,-1.6551 1.50203,-3.35511 -0.48061,-5.33775 -1.57414,-1.57414 -1.57414,-1.74018 0,-2.62111 3.0543,-1.70927 1.75292,-2.5358 -3.56939,-2.26698 -2.8875,0.14584 -5.5875,0.30131 -6,0.3455 -1.41561,0.15164 -0.74994,2.86639 0.85375,3.48178 0.95571,0.36674 1.36124,1.2474 1.00359,2.17943 -0.9991,2.60362 1.19748,5.41913 4.22784,5.41913 1.52065,0 3.30482,-0.54 3.96482,-1.2 z m -0.37143,-12.37143 c 1.96651,-1.9665 1.99842,-3.85872 0.0971,-5.76001 -1.29907,-1.29907 -1.29907,-1.54155 0,-2.04005 2.69066,-1.0325 1.52564,-2.62851 -1.91871,-2.62851 -2.15466,0 -3.61197,-0.57059 -3.99294,-1.56338 -0.85069,-2.21687 -2.61405,-0.78516 -2.61405,2.1224 0,1.55241 0.57204,2.44098 1.57143,2.44098 1.42857,0 1.42857,0.14286 0,1.57143 -0.86429,0.86429 -1.57143,2.18214 -1.57143,2.92857 0,1.95303 2.82997,4.5 5,4.5 1.02143,0 2.56429,-0.70714 3.42857,-1.57143 l 0,0 z m 1.57143,-18.92857 c 0,-1.06539 -1.08135,-1.5 -3.73214,-1.5 l -3.73213,0 3.73213,-2.53605 c 2.05268,-1.39483 3.73214,-2.96983 3.73214,-3.5 0,-0.53017 -2.925,-0.96395 -6.5,-0.96395 -6.93102,0 -9.02841,1.67001 -2.75,2.18964 l 3.75,0.31036 -3.75,2.33156 c -5.803,3.60801 -4.97273,5.16844 2.75,5.16844 5.11111,0 6.5,-0.32051 6.5,-1.5 z"
       id="path3842"
       inkscape:connector-curvature="0"
       transform="matrix(1.0034843,0,0,1.008168,49.221735,119.16237)" />
    <path
       style="fill:#000000;fill-opacity:0"
       d="m 299.90928,193.28374 0,-77.5 130.5,0 130.5,0 0,77.5 0,77.5 -13,0 c -12.33333,0 -13,-0.10256 -13,-2 0,-1.87879 0.66667,-2 11,-2 l 11,0 0,-49.5 0,-49.5 -23,0 -23,0 0,49.5 0,49.5 11,0 c 10.33333,0 11,0.12121 11,2 0,1.98856 -0.66667,2 -116.5,2 l -116.5,0 0,-77.5 z m 53.75942,24.25 -0.25942,-49.25 -23.25,-0.26843 -23.25,-0.26843 0,49.51843 0,49.51843 23.50942,0 23.50943,0 -0.25943,-49.25 z m 61.24058,-0.25 0,-49.5 -23,0 -23,0 0,49.5 0,49.5 23,0 23,0 0,-49.5 z m 90,0 0,-49.5 -23.5,0 -23.5,0 0,49.5 0,49.5 23.5,0 23.5,0 0,-49.5 z m -69,-7 c 0,-0.825 -0.675,-1.5 -1.5,-1.5 -0.825,0 -1.5,0.675 -1.5,1.5 0,0.825 0.675,1.5 1.5,1.5 0.825,0 1.5,-0.675 1.5,-1.5 z m 5,0 c 0,-0.825 -0.675,-1.5 -1.5,-1.5 -0.825,0 -1.5,0.675 -1.5,1.5 0,0.825 0.675,1.5 1.5,1.5 0.825,0 1.5,-0.675 1.5,-1.5 z m 5,0 c 0,-0.825 -0.675,-1.5 -1.5,-1.5 -0.825,0 -1.5,0.675 -1.5,1.5 0,0.825 0.675,1.5 1.5,1.5 0.825,0 1.5,-0.675 1.5,-1.5 z m -80.3179,-67.5821 c 0.77614,-0.77614 1.66808,-0.71615 3.15452,0.21214 2.76668,1.72782 3.92656,0.37075 1.74421,-2.04072 -1.39871,-1.54556 -1.51849,-2.33728 -0.61036,-4.03414 1.60982,-3.00798 3.02953,-1.60031 3.02953,3.00384 0,3.27431 0.33832,3.94098 2,3.94098 1.1,0 2,-0.45 2,-1 0,-0.55 -0.45,-1 -1,-1 -1.45455,0 -1.2282,-5.74074 0.25,-6.34053 0.91572,-0.37157 0.94666,-0.72813 0.11568,-1.33334 -0.62387,-0.45437 -1.36367,-1.72613 -1.644,-2.82613 -0.48527,-1.90417 -0.54431,-1.89219 -1.23231,0.25 -0.48235,1.50184 -1.51514,2.25 -3.106,2.25 -1.31085,0 -2.38337,0.54 -2.38337,1.2 0,0.93333 -0.26667,0.93333 -1.2,0 -0.66,-0.66 -2.07974,-1.2 -3.15499,-1.2 -1.89479,0 -1.89899,0.0619 -0.13622,2.00972 1.51574,1.67486 1.61863,2.38368 0.61754,4.25422 -1.02238,1.91035 -1.86562,2.19168 -5.66378,1.8896 -3.59244,-0.28572 -4.46255,-0.72525 -4.46255,-2.25423 0,-1.50397 0.72852,-1.89931 3.5,-1.89931 1.925,0 3.5,-0.45 3.5,-1 0,-0.55 -1.575,-1 -3.5,-1 -2.83333,0 -3.5,-0.38095 -3.5,-2 0,-1.66667 0.66667,-2 4,-2 2.2,0 4,-0.45 4,-1 0,-0.55 -2.475,-1 -5.5,-1 l -5.5,0 0,7 0,7 6.8,0 c 3.74,0 7.28695,-0.48694 7.8821,-1.0821 z m 14.50753,-2.6679 0.31037,-3.75 5,-0.10368 5,-0.10369 -3.17345,1.32532 c -3.72835,1.55706 -4.55553,2.62176 -3.72281,4.79181 0.42968,1.11972 1.91004,1.59024 5.00325,1.59024 l 4.39301,0 0,-4.52144 c 0,-3.78819 -0.38492,-4.69682 -2.37351,-5.60288 -1.67387,-0.76266 -2.95517,-0.77014 -4.3468,-0.0254 -1.20183,0.6432 -2.33315,0.69623 -2.89374,0.13564 -0.50624,-0.50624 -1.92518,-0.6577 -3.1532,-0.33656 -1.92581,0.50361 -2.23275,1.25519 -2.23275,5.46724 0,5.71791 1.73584,6.61639 2.18963,1.13337 z m 22.62538,1.5 c 0.20195,-1.06566 -0.28361,-1.75 -1.24169,-1.75 -0.86532,0 -1.57332,0.45 -1.57332,1 0,1.57225 -2.72178,1.16742 -3.36163,-0.5 -0.31658,-0.825 -0.31658,-2.175 0,-3 0.68406,-1.78263 3.03035,-1.99385 3.58731,-0.32295 0.2158,0.64738 0.90864,0.85797 1.53966,0.46798 1.5261,-0.94318 0.53107,-3.33425 -1.62181,-3.89724 -3.36131,-0.87901 -6.14353,0.99506 -6.14353,4.1382 0,5.16175 0.89524,6.24966 4.86893,5.91679 2.49711,-0.20918 3.71696,-0.84376 3.94608,-2.05278 l 0,0 z m 5.18499,1.05 c 0,-0.93333 0.26667,-0.93333 1.2,0 0.66,0.66 2.37,1.2 3.8,1.2 1.43,0 3.14,-0.54 3.8,-1.2 1.32667,-1.32667 1.58154,-5.67435 0.43469,-7.41522 -1.27357,-1.93321 -4.75458,-2.45633 -6.73056,-1.01146 -2.14217,1.56639 -3.94766,0.44473 -4.73889,-2.94404 -0.84937,-3.6378 -2.45249,2.66283 -1.98988,7.82072 0.34529,3.84986 0.78595,4.75 2.32533,4.75 1.04462,0 1.89931,-0.54 1.89931,-1.2 z m 14,-2.8 c 0,-2.88889 0.41667,-4 1.5,-4 1.60497,0 2.04067,-1.54781 0.67354,-2.39274 -0.45455,-0.28093 -1.80455,-0.25501 -3,0.0576 -1.85706,0.48563 -2.17354,1.27943 -2.17354,5.45176 0,3.67411 0.37144,4.88337 1.5,4.88337 1.08333,0 1.5,-1.11111 1.5,-4 z m 11,1 c 0,-3.92841 2.25372,-3.92841 5.15812,0 1.2199,1.65 2.80837,3 3.52994,3 1.75417,0 1.65287,-1.06824 -0.37599,-3.96485 -1.19709,-1.70908 -1.34249,-2.52501 -0.5,-2.80584 1.77633,-0.59211 1.46,-5.91093 -0.39386,-6.62232 -0.86998,-0.33384 -3.34498,-0.60699 -5.5,-0.60699 l -3.91821,0 0,7 c 0,4 0.42857,7 1,7 0.55,0 1,-1.35 1,-3 z m 22,2 c 0,-0.55 -1.8,-1 -4,-1 -3.33333,0 -4,-0.33333 -4,-2 0,-1.61905 0.66667,-2 3.5,-2 1.925,0 3.5,-0.45 3.5,-1 0,-0.55 -1.575,-1 -3.5,-1 -2.83333,0 -3.5,-0.38095 -3.5,-2 0,-1.66667 0.66667,-2 4,-2 2.2,0 4,-0.45 4,-1 0,-0.55 -2.475,-1 -5.5,-1 l -5.5,0 0,7 0,7 5.5,0 c 3.025,0 5.5,-0.45 5.5,-1 z m 11.80056,-2.57845 c 0.27136,-2.77934 -0.10148,-3.23637 -3.83749,-4.70392 -2.35693,-0.92583 -3.85978,-2.07573 -3.49155,-2.67155 0.95605,-1.54692 3.50564,-1.26918 4.16685,0.45392 0.70574,1.83912 3.36163,1.99713 3.36163,0.2 0,-2.2227 -2.26179,-3.7 -5.66482,-3.7 -5.72898,0 -6.95203,6.34087 -1.47488,7.64652 3.28937,0.78413 5.28973,2.3017 4.56967,3.46679 -0.89095,1.44159 -4.44483,1.01154 -5.06834,-0.61331 -0.70574,-1.83911 -3.36163,-1.99713 -3.36163,-0.2 0,2.45941 2.47643,3.79208 6.4955,3.4955 3.6643,-0.27039 4.03003,-0.55702 4.30506,-3.37395 z m 8.19944,-2.42155 c 0,-5.33333 0.22222,-6 2,-6 1.1,0 2,-0.45 2,-1 0,-0.55 -2.475,-1 -5.5,-1 -3.025,0 -5.5,0.45 -5.5,1 0,0.55 0.9,1 2,1 1.77778,0 2,0.66667 2,6 0,4.66667 0.33333,6 1.5,6 1.16667,0 1.5,-1.33333 1.5,-6 z m 12.5,4 c 0.39907,-1.25736 1.51303,-2 3,-2 1.48697,0 2.60093,0.74264 3,2 0.62973,1.9841 3.5,2.85823 3.5,1.06592 0,-0.51375 -1.19249,-3.68375 -2.64999,-7.04444 -3.13796,-7.23555 -4.83203,-7.47135 -7.33872,-1.02148 -3.0963,7.96695 -3.28524,9 -1.64607,9 0.825,0 1.78565,-0.9 2.13478,-2 l 0,0 z m 12.5,-0.5 c 0,-2.09756 0.47143,-2.5 2.92857,-2.5 4.88988,0 7.88143,-4.78999 4.87143,-7.8 -0.66,-0.66 -3.135,-1.2 -5.5,-1.2 l -4.3,0 0,7 c 0,4 0.42857,7 1,7 0.55,0 1,-1.125 1,-2.5 z m 13,-4.5 c 0,-5.55555 -0.30952,-7 -1.5,-7 -1.19048,0 -1.5,1.44445 -1.5,7 0,5.55556 0.30952,7 1.5,7 1.19048,0 1.5,-1.44444 1.5,-7 z"
       id="path3844"
       inkscape:connector-curvature="0"
       transform="matrix(1.0034843,0,0,1.008168,49.221735,119.16237)" />
    <text
       xml:space="preserve"
       style="font-size:40px;font-style:normal;font-weight:normal;line-height:125%;letter-spacing:0px;word-spacing:0px;fill:#000000;fill-opacity:1;stroke:none;font-family:Sans"
       x="202"
       y="185.53595"
       id="text3029"
       sodipodi:linespacing="125%"
       transform="matrix(1.0034843,0,0,1.008168,49.221735,119.16237)"><tspan
         sodipodi:role="line"
         id="tspan3031"></tspan></text>
    <text
       xml:space="preserve"
       style="font-size:40.23293686px;font-style:normal;font-weight:normal;line-height:125%;letter-spacing:0px;word-spacing:0px;fill:#000000;fill-opacity:1;stroke:none;font-family:Sans"
       x="199.20416"
       y="163.68056"
       id="text3033"
       sodipodi:linespacing="125%"
       transform="scale(0.99767442,1.002331)"><tspan
         sodipodi:role="line"
         id="tspan3035"
         x="199.20416"
         y="163.68056"
         style="font-size:28.16305733px">UI / Other clients</tspan></text>
    <text
       xml:space="preserve"
       style="font-size:14.08152771px;font-style:normal;font-weight:normal;line-height:125%;letter-spacing:0px;word-spacing:0px;fill:#000000;fill-opacity:1;stroke:none;font-family:Sans"
       x="196.18669"
       y="187.82031"
       id="text3039"
       sodipodi:linespacing="125%"
       transform="scale(0.99767442,1.002331)"><tspan
         sodipodi:role="line"
         x="196.18669"
         y="187.82031"
         id="tspan3043">LDP API / Transforming Collection API</tspan></text>
    <text
       xml:space="preserve"
       style="font-size:18.10482216px;font-style:normal;font-weight:normal;line-height:125%;letter-spacing:0px;word-spacing:0px;fill:#000000;fill-opacity:1;stroke:none;font-family:Sans"
       x="216.30316"
       y="214.97754"
       id="text3047"
       sodipodi:linespacing="125%"
       transform="scale(0.99767442,1.002331)"><tspan
         sodipodi:role="line"
         id="tspan3049"
         x="216.30316"
         y="214.97754">LDP Transforming Proxy</tspan></text>
    <text
       xml:space="preserve"
       style="font-size:22.1281147px;font-style:normal;font-weight:normal;line-height:125%;letter-spacing:0px;word-spacing:0px;fill:#000000;fill-opacity:1;stroke:none;font-family:Sans"
       x="367.17667"
       y="260.23959"
       id="text3051"
       sodipodi:linespacing="125%"
       transform="scale(0.99767442,1.002331)"><tspan
         sodipodi:role="line"
         id="tspan3053"
         x="367.17667"
         y="260.23959">Transformer REST API</tspan><tspan
         sodipodi:role="line"
         x="367.17667"
         y="287.89975"
         id="tspan3055" /></text>
    <text
       xml:space="preserve"
       style="font-size:14.08152866px;font-style:normal;font-weight:normal;line-height:125%;letter-spacing:0px;word-spacing:0px;fill:#000000;fill-opacity:1;stroke:none;font-family:Sans"
       x="-391.24402"
       y="384.14011"
       id="text3057"
       sodipodi:linespacing="125%"
       transform="matrix(-0.0060579,-1.0023125,0.99765605,-0.00608617,0,0)"><tspan
         sodipodi:role="line"
         id="tspan3059"
         x="-391.24402"
         y="384.14011">Transformer 1</tspan></text>
    <text
       xml:space="preserve"
       style="font-size:14.08152866px;font-style:normal;font-weight:normal;line-height:125%;letter-spacing:0px;word-spacing:0px;fill:#000000;fill-opacity:1;stroke:none;font-family:Sans"
       x="-391.74155"
       y="448.67911"
       id="text3057-1"
       sodipodi:linespacing="125%"
       transform="matrix(-0.00605791,-1.0023125,0.99765605,-0.00608617,0,0)"><tspan
         sodipodi:role="line"
         id="tspan3059-7"
         x="-391.74155"
         y="448.67911">Transformer 2</tspan></text>
    <text
       xml:space="preserve"
       style="font-size:14.08152866px;font-style:normal;font-weight:normal;line-height:125%;letter-spacing:0px;word-spacing:0px;fill:#000000;fill-opacity:1;stroke:none;font-family:Sans"
       x="-391.28537"
       y="539.20764"
       id="text3057-2"
       sodipodi:linespacing="125%"
       transform="matrix(-0.00605791,-1.0023125,0.99765605,-0.00608617,0,0)"><tspan
         sodipodi:role="line"
         id="tspan3059-1"
         x="-391.28537"
         y="539.20764">Transformer N</tspan></text>
    <text
       xml:space="preserve"
       style="font-size:14.08152866px;font-style:normal;font-weight:normal;line-height:125%;letter-spacing:0px;word-spacing:0px;fill:#000000;fill-opacity:1;stroke:none;font-family:Sans"
       x="-387.50644"
       y="579.46423"
       id="text3057-8"
       sodipodi:linespacing="125%"
       transform="matrix(-0.00605791,-1.0023125,0.99765605,-0.00608617,0,0)"><tspan
         sodipodi:role="line"
         id="tspan3059-4"
         x="-387.50644"
         y="579.46423">Pipeline</tspan><tspan
         sodipodi:role="line"
         x="-387.50644"
         y="597.06616"
         id="tspan3109">Transformer</tspan></text>
  </g>
</svg>
