<?xml version="1.0" encoding="UTF-8" standalone="no"?>
<svg
   xmlns:dc="http://purl.org/dc/elements/1.1/"
   xmlns:cc="http://creativecommons.org/ns#"
   xmlns:rdf="http://www.w3.org/1999/02/22-rdf-syntax-ns#"
   xmlns:svg="http://www.w3.org/2000/svg"
   xmlns="http://www.w3.org/2000/svg"
   xmlns:sodipodi="http://sodipodi.sourceforge.net/DTD/sodipodi-0.dtd"
   xmlns:inkscape="http://www.inkscape.org/namespaces/inkscape"
   version="1.1"
   viewBox="0.0 0.0 765.0 455.0"
   fill="none"
   stroke="none"
   stroke-linecap="square"
   stroke-miterlimit="10"
   id="svg2"
   inkscape:version="0.48.4 r9939"
   width="100%"
   height="100%"
   sodipodi:docname="proxy-flow-diagram-3.svg">
  <metadata
     id="metadata125">
    <rdf:RDF>
      <cc:Work
         rdf:about="">
        <dc:format>image/svg+xml</dc:format>
        <dc:type
           rdf:resource="http://purl.org/dc/dcmitype/StillImage" />
        <dc:title></dc:title>
      </cc:Work>
    </rdf:RDF>
  </metadata>
  <defs
     id="defs123" />
  <sodipodi:namedview
     pagecolor="#ffffff"
     bordercolor="#666666"
     borderopacity="1"
     objecttolerance="10"
     gridtolerance="10"
     guidetolerance="10"
     inkscape:pageopacity="0"
     inkscape:pageshadow="2"
     inkscape:window-width="640"
     inkscape:window-height="480"
     id="namedview121"
     showgrid="false"
     inkscape:zoom="0.38169935"
     inkscape:cx="382.5"
     inkscape:cy="227.5"
     inkscape:window-x="65"
     inkscape:window-y="24"
     inkscape:window-maximized="0"
     inkscape:current-layer="svg2" />
  <clipPath
     id="p.0">
    <path
       d="m0 0l765.0 0l0 455.0l-765.0 0l0 -455.0z"
       clip-rule="nonzero"
       id="path5" />
  </clipPath>
  <g
     clip-path="url(#p.0)"
     id="g7">
    <path
       fill="#000000"
       fill-opacity="0.0"
       d="m0 0l765.45404 0l0 455.6063l-765.45404 0z"
       fill-rule="nonzero"
       id="path9" />
    <path
       fill="#f3f3f3"
       d="m209.0 27.015749l97.00787 0l0 33.984253l-97.00787 0z"
       fill-rule="nonzero"
       id="path11" />
    <path
       stroke="#434343"
       stroke-width="1.0"
       stroke-linejoin="round"
       stroke-linecap="butt"
       d="m209.0 27.015749l97.00787 0l0 33.984253l-97.00787 0z"
       fill-rule="nonzero"
       id="path13" />
    <path
       fill="#000000"
       d="m235.12857 50.92787l0 -13.59375l5.125 0q1.359375 0 2.078125 0.125q1.0 0.171875 1.671875 0.640625q0.671875 0.46875 1.078125 1.3125q0.421875 0.84375 0.421875 1.84375q0 1.734375 -1.109375 2.9375q-1.09375 1.203125 -3.984375 1.203125l-3.484375 0l0 5.53125l-1.796875 0zm1.796875 -7.140625l3.515625 0q1.75 0 2.46875 -0.640625q0.734375 -0.65625 0.734375 -1.828125q0 -0.859375 -0.4375 -1.46875q-0.421875 -0.609375 -1.125 -0.796875q-0.453125 -0.125 -1.671875 -0.125l-3.484375 0l0 4.859375zm10.412323 7.140625l0 -9.859375l1.5 0l0 1.5q0.578125 -1.046875 1.0625 -1.375q0.484375 -0.34375 1.078125 -0.34375q0.84375 0 1.71875 0.546875l-0.578125 1.546875q-0.609375 -0.359375 -1.234375 -0.359375q-0.546875 0 -0.984375 0.328125q-0.421875 0.328125 -0.609375 0.90625q-0.28125 0.890625 -0.28125 1.953125l0 5.15625l-1.671875 0zm5.603302 -4.921875q0 -2.734375 1.53125 -4.0625q1.265625 -1.09375 3.09375 -1.09375q2.03125 0 3.3125 1.34375q1.296875 1.328125 1.296875 3.671875q0 1.90625 -0.578125 3.0q-0.5625 1.078125 -1.65625 1.6875q-1.078125 0.59375 -2.375 0.59375q-2.0625 0 -3.34375 -1.328125q-1.28125 -1.328125 -1.28125 -3.8125zm1.71875 0q0 1.890625 0.828125 2.828125q0.828125 0.9375 2.078125 0.9375q1.25 0 2.0625 -0.9375q0.828125 -0.953125 0.828125 -2.890625q0 -1.828125 -0.828125 -2.765625q-0.828125 -0.9375 -2.0625 -0.9375q-1.25 0 -2.078125 0.9375q-0.828125 0.9375 -0.828125 2.828125zm8.172607 4.921875l3.59375 -5.125l-3.328125 -4.734375l2.09375 0l1.515625 2.3125q0.421875 0.65625 0.671875 1.109375q0.421875 -0.609375 0.765625 -1.09375l1.65625 -2.328125l1.984375 0l-3.390625 4.640625l3.65625 5.21875l-2.046875 0l-2.03125 -3.0625l-0.53125 -0.828125l-2.59375 3.890625l-2.015625 0zm10.359375 3.796875l-0.171875 -1.5625q0.546875 0.140625 0.953125 0.140625q0.546875 0 0.875 -0.1875q0.34375 -0.1875 0.5625 -0.515625q0.15625 -0.25 0.5 -1.25q0.046875 -0.140625 0.15625 -0.40625l-3.734375 -9.875l1.796875 0l2.046875 5.71875q0.40625 1.078125 0.71875 2.28125q0.28125 -1.15625 0.6875 -2.25l2.09375 -5.75l1.671875 0l-3.75 10.03125q-0.59375 1.625 -0.9375 2.234375q-0.4375 0.828125 -1.015625 1.203125q-0.578125 0.390625 -1.375 0.390625q-0.484375 0 -1.078125 -0.203125z"
       fill-rule="nonzero"
       id="path15" />
    <path
       fill="#000000"
       fill-opacity="0.0"
       d="m257.50394 61.0l2.4881897 381.00787"
       fill-rule="nonzero"
       id="path17" />
    <path
       stroke="#000000"
       stroke-width="2.0"
       stroke-linejoin="round"
       stroke-linecap="butt"
       stroke-dasharray="8.0,6.0"
       d="m257.50394 61.0l2.4881897 381.00787"
       fill-rule="nonzero"
       id="path19" />
    <path
       fill="#000000"
       fill-opacity="0.0"
       d="m86.0 20.0l132.0 0l0 34.015747l-132.0 0z"
       fill-rule="nonzero"
       id="path21" />
    <path
       fill="#000000"
       fill-opacity="0.0"
       d="m114.0 135.0l144.97638 -1.0078735"
       fill-rule="nonzero"
       id="path23" />
    <path
       stroke="#000000"
       stroke-width="2.0"
       stroke-linejoin="round"
       stroke-linecap="butt"
       d="m114.0 135.0l132.97667 -0.92445374"
       fill-rule="evenodd"
       id="path25" />
    <path
       fill="#000000"
       stroke="#000000"
       stroke-width="2.0"
       stroke-linecap="butt"
       d="m246.99963 137.37894l9.053009 -3.3664856l-9.098938 -3.2402954z"
       fill-rule="evenodd"
       id="path27" />
    <path
       fill="#000000"
       fill-opacity="0.0"
       d="m43.244095 99.50394l217.5118 0l0 29.007874l-217.5118 0z"
       fill-rule="nonzero"
       id="path29" />
    <path
       fill="#000000"
       d="m58.69722 105.05788q0 0.5 -0.203125 1.0q-0.1875 0.5 -0.59375 0.890625q-0.390625 0.390625 -1.015625 0.640625q-0.609375 0.234375 -1.484375 0.234375l-1.015625 0l0 2.984375l-1.140625 0l0 -8.296875l2.34375 0q0.609375 0 1.171875 0.140625q0.5625 0.125 0.984375 0.4375q0.4375 0.296875 0.6875 0.78125q0.265625 0.484375 0.265625 1.1875zm-1.171875 0.046875q0 -0.796875 -0.53125 -1.21875q-0.515625 -0.4375 -1.46875 -0.4375l-1.140625 0l0 3.421875l1.046875 0q1.0 0 1.546875 -0.4375q0.546875 -0.4375 0.546875 -1.328125zm8.843491 1.5q0 1.125 -0.265625 1.9375q-0.265625 0.8125 -0.71875 1.34375q-0.4375 0.515625 -1.046875 0.78125q-0.59375 0.25 -1.25 0.25q-0.8125 0 -1.40625 -0.28125q-0.578125 -0.296875 -0.96875 -0.84375q-0.390625 -0.546875 -0.59375 -1.328125q-0.1875 -0.78125 -0.1875 -1.765625q0 -1.109375 0.25 -1.921875q0.265625 -0.8125 0.71875 -1.328125q0.453125 -0.53125 1.046875 -0.78125q0.59375 -0.265625 1.265625 -0.265625q0.796875 0 1.390625 0.296875q0.59375 0.28125 0.984375 0.828125q0.390625 0.546875 0.578125 1.328125q0.203125 0.765625 0.203125 1.75zm-1.171875 0.078125q0 -0.71875 -0.109375 -1.328125q-0.109375 -0.609375 -0.359375 -1.046875q-0.25 -0.4375 -0.640625 -0.671875q-0.390625 -0.25 -0.9375 -0.25q-0.53125 0 -0.921875 0.265625q-0.390625 0.25 -0.640625 0.6875q-0.234375 0.4375 -0.359375 1.03125q-0.125 0.59375 -0.125 1.265625q0 0.734375 0.109375 1.34375q0.125 0.609375 0.359375 1.046875q0.25 0.421875 0.640625 0.671875q0.390625 0.234375 0.9375 0.234375q0.53125 0 0.90625 -0.25q0.390625 -0.265625 0.640625 -0.703125q0.265625 -0.4375 0.375 -1.03125q0.125 -0.59375 0.125 -1.265625zm8.030991 1.875q0 0.59375 -0.25 1.046875q-0.234375 0.4375 -0.671875 0.734375q-0.421875 0.296875 -1.03125 0.4375q-0.609375 0.140625 -1.328125 0.140625q-0.34375 0 -0.671875 -0.03125q-0.3125 -0.015625 -0.625 -0.0625q-0.296875 -0.03125 -0.5625 -0.078125q-0.265625 -0.046875 -0.484375 -0.109375l0 -1.09375q0.484375 0.1875 1.078125 0.296875q0.59375 0.09375 1.34375 0.09375q0.546875 0 0.921875 -0.078125q0.390625 -0.09375 0.625 -0.265625q0.25 -0.171875 0.359375 -0.40625q0.109375 -0.25 0.109375 -0.5625q0 -0.328125 -0.1875 -0.5625q-0.171875 -0.25 -0.484375 -0.4375q-0.296875 -0.1875 -0.6875 -0.34375q-0.390625 -0.15625 -0.796875 -0.3125q-0.40625 -0.171875 -0.796875 -0.359375q-0.390625 -0.203125 -0.703125 -0.453125q-0.296875 -0.265625 -0.484375 -0.625q-0.1875 -0.359375 -0.1875 -0.84375q0 -0.421875 0.171875 -0.828125q0.171875 -0.421875 0.546875 -0.734375q0.375 -0.328125 0.953125 -0.515625q0.59375 -0.203125 1.40625 -0.203125q0.21875 0 0.453125 0.015625q0.25 0.015625 0.5 0.0625q0.25 0.03125 0.5 0.078125q0.25 0.03125 0.453125 0.09375l0 1.015625q-0.484375 -0.140625 -0.984375 -0.21875q-0.484375 -0.078125 -0.9375 -0.078125q-0.96875 0 -1.4375 0.328125q-0.453125 0.328125 -0.453125 0.875q0 0.328125 0.1875 0.578125q0.1875 0.234375 0.484375 0.421875q0.3125 0.1875 0.703125 0.34375q0.390625 0.15625 0.796875 0.328125q0.40625 0.15625 0.796875 0.359375q0.390625 0.203125 0.6875 0.46875q0.3125 0.265625 0.5 0.625q0.1875 0.359375 0.1875 0.859375zm7.6091156 -5.078125l-2.46875 0l0 7.328125l-1.140625 0l0 -7.328125l-2.453125 0l0 -0.96875l6.0625 0l0 0.96875z"
       fill-rule="nonzero"
       id="path31" />
    <path
       fill="#000000"
       d="m58.38472 117.83913l-4.359375 10.328125l-1.046875 0l4.34375 -10.328125l1.0625 0zm4.3747406 0.90625l-1.890625 0l0 -0.90625l3.0 0l0 8.046875l1.90625 0l0 0.921875l-5.109375 0l0 -0.921875l2.09375 0l0 -7.140625zm4.8278656 5.015625q0 -0.8125 0.21875 -1.4375q0.234375 -0.640625 0.640625 -1.078125q0.40625 -0.4375 0.984375 -0.65625q0.578125 -0.234375 1.28125 -0.234375q0.296875 0 0.59375 0.046875q0.296875 0.03125 0.578125 0.109375l0 -2.671875l1.109375 0l0 8.96875l-0.984375 0l-0.03125 -1.203125q-0.46875 0.671875 -1.015625 1.0q-0.53125 0.3125 -1.15625 0.3125q-0.546875 0 -0.96875 -0.21875q-0.40625 -0.234375 -0.6875 -0.640625q-0.28125 -0.421875 -0.421875 -1.0q-0.140625 -0.59375 -0.140625 -1.296875zm1.140625 -0.078125q0 1.15625 0.328125 1.734375q0.34375 0.5625 0.96875 0.5625q0.421875 0 0.875 -0.375q0.46875 -0.375 0.984375 -1.109375l0 -2.96875q-0.265625 -0.125 -0.59375 -0.1875q-0.328125 -0.0625 -0.65625 -0.0625q-0.90625 0 -1.40625 0.578125q-0.5 0.578125 -0.5 1.828125zm11.968491 -0.171875q0 0.84375 -0.25 1.484375q-0.234375 0.625 -0.65625 1.046875q-0.421875 0.421875 -1.0 0.640625q-0.5625 0.203125 -1.21875 0.203125q-0.3125 0 -0.609375 -0.03125q-0.296875 -0.03125 -0.609375 -0.109375l0 2.671875l-1.109375 0l0 -8.984375l0.984375 0l0.0625 1.0625q0.484375 -0.640625 1.015625 -0.90625q0.546875 -0.265625 1.171875 -0.265625q0.546875 0 0.953125 0.234375q0.421875 0.21875 0.703125 0.640625q0.28125 0.40625 0.421875 1.0q0.140625 0.578125 0.140625 1.3125zm-1.140625 0.046875q0 -0.5 -0.078125 -0.921875q-0.0625 -0.421875 -0.21875 -0.71875q-0.15625 -0.296875 -0.40625 -0.453125q-0.25 -0.171875 -0.59375 -0.171875q-0.203125 0 -0.421875 0.0625q-0.21875 0.0625 -0.453125 0.21875q-0.234375 0.15625 -0.5 0.421875q-0.25 0.25 -0.53125 0.625l0 3.09375q0.296875 0.125 0.625 0.203125q0.34375 0.078125 0.671875 0.078125q0.890625 0 1.390625 -0.609375q0.515625 -0.609375 0.515625 -1.828125zm8.140366 -5.71875l-4.359375 10.328125l-1.046875 0l4.34375 -10.328125l1.0625 0zm7.3434906 8.875q-0.375 0.09375 -0.78125 0.140625q-0.390625 0.046875 -0.8125 0.046875q-1.203125 0 -1.796875 -0.546875q-0.578125 -0.546875 -0.578125 -1.671875l0 -3.328125l-1.78125 0l0 -0.921875l1.78125 0l0 -1.75l1.09375 -0.28125l0 2.03125l2.875 0l0 0.921875l-2.875 0l0 3.25q0 0.671875 0.359375 1.015625q0.375 0.34375 1.09375 0.34375q0.296875 0 0.65625 -0.046875q0.359375 -0.046875 0.765625 -0.15625l0 0.953125zm2.4528656 -6.28125l1.0 0l0.03125 1.171875q0.5625 -0.671875 1.109375 -0.96875q0.5625 -0.3125 1.109375 -0.3125q1.0 0 1.5 0.640625q0.515625 0.640625 0.484375 1.90625l-1.125 0q0.03125 -0.84375 -0.234375 -1.21875q-0.265625 -0.375 -0.78125 -0.375q-0.21875 0 -0.453125 0.078125q-0.21875 0.078125 -0.453125 0.25q-0.234375 0.171875 -0.5 0.453125q-0.265625 0.265625 -0.578125 0.65625l0 4.09375l-1.109375 0l0 -6.375zm11.155991 6.375l-0.03125 -0.859375q-0.515625 0.515625 -1.0625 0.75q-0.53125 0.21875 -1.109375 0.21875q-0.546875 0 -0.9375 -0.140625q-0.390625 -0.140625 -0.640625 -0.375q-0.25 -0.25 -0.375 -0.578125q-0.109375 -0.328125 -0.109375 -0.71875q0 -0.953125 0.703125 -1.5q0.71875 -0.546875 2.125 -0.546875l1.3125 0l0 -0.546875q0 -0.578125 -0.359375 -0.90625q-0.359375 -0.34375 -1.109375 -0.34375q-0.53125 0 -1.0625 0.125q-0.515625 0.109375 -1.078125 0.34375l0 -1.0q0.21875 -0.078125 0.46875 -0.140625q0.25 -0.078125 0.53125 -0.140625q0.296875 -0.0625 0.609375 -0.09375q0.3125 -0.03125 0.625 -0.03125q0.578125 0 1.03125 0.125q0.46875 0.125 0.78125 0.390625q0.328125 0.25 0.5 0.65625q0.171875 0.390625 0.171875 0.921875l0 4.390625l-0.984375 0zm-0.125 -2.90625l-1.390625 0q-0.421875 0 -0.71875 0.09375q-0.296875 0.078125 -0.484375 0.234375q-0.1875 0.140625 -0.28125 0.359375q-0.09375 0.21875 -0.09375 0.484375q0 0.171875 0.046875 0.34375q0.0625 0.171875 0.1875 0.3125q0.125 0.125 0.328125 0.203125q0.203125 0.0625 0.5 0.0625q0.375 0 0.859375 -0.21875q0.5 -0.234375 1.046875 -0.734375l0 -1.140625zm3.3591156 -3.46875l0.984375 0l0.046875 1.03125q0.28125 -0.328125 0.53125 -0.546875q0.265625 -0.21875 0.515625 -0.34375q0.25 -0.140625 0.5 -0.1875q0.265625 -0.0625 0.546875 -0.0625q0.984375 0 1.484375 0.578125q0.515625 0.578125 0.515625 1.75l0 4.15625l-1.109375 0l0 -4.0625q0 -0.75 -0.28125 -1.109375q-0.28125 -0.359375 -0.828125 -0.359375q-0.203125 0 -0.40625 0.0625q-0.1875 0.046875 -0.40625 0.203125q-0.203125 0.15625 -0.453125 0.40625q-0.234375 0.25 -0.53125 0.625l0 4.234375l-1.109375 0l0 -6.375zm12.374741 4.640625q0 0.328125 -0.125 0.59375q-0.109375 0.265625 -0.3125 0.484375q-0.1875 0.203125 -0.453125 0.34375q-0.25 0.140625 -0.546875 0.25q-0.296875 0.09375 -0.609375 0.125q-0.3125 0.046875 -0.609375 0.046875q-0.640625 0 -1.1875 -0.0625q-0.546875 -0.046875 -1.0625 -0.171875l0 -1.015625q0.5625 0.15625 1.109375 0.25q0.546875 0.078125 1.09375 0.078125q0.796875 0 1.171875 -0.21875q0.390625 -0.21875 0.390625 -0.625q0 -0.171875 -0.0625 -0.296875q-0.0625 -0.140625 -0.21875 -0.265625q-0.15625 -0.125 -0.5 -0.25q-0.328125 -0.140625 -0.90625 -0.3125q-0.421875 -0.125 -0.796875 -0.28125q-0.359375 -0.171875 -0.625 -0.390625q-0.265625 -0.21875 -0.421875 -0.515625q-0.15625 -0.296875 -0.15625 -0.703125q0 -0.265625 0.125 -0.578125q0.125 -0.328125 0.421875 -0.59375q0.296875 -0.28125 0.796875 -0.453125q0.515625 -0.1875 1.28125 -0.1875q0.375 0 0.828125 0.046875q0.453125 0.03125 0.953125 0.140625l0 0.984375q-0.515625 -0.140625 -0.984375 -0.1875q-0.46875 -0.0625 -0.8125 -0.0625q-0.40625 0 -0.6875 0.0625q-0.28125 0.0625 -0.46875 0.171875q-0.171875 0.109375 -0.25 0.265625q-0.0625 0.140625 -0.0625 0.3125q0 0.171875 0.0625 0.3125q0.0625 0.140625 0.234375 0.28125q0.1875 0.125 0.515625 0.25q0.328125 0.125 0.84375 0.28125q0.5625 0.171875 0.953125 0.359375q0.390625 0.171875 0.625 0.390625q0.25 0.21875 0.34375 0.5q0.109375 0.28125 0.109375 0.640625zm7.9372406 -6.203125q-0.875 -0.1875 -1.5 -0.1875q-1.484375 0 -1.484375 1.5625l0 1.109375l2.78125 0l0 0.921875l-2.78125 0l0 4.53125l-1.125 0l0 -4.53125l-2.046875 0l0 -0.921875l2.046875 0l0 -1.046875q0 -2.546875 2.65625 -2.546875q0.65625 0 1.453125 0.15625l0 0.953125zm-6.671875 1.5625l0 0zm13.890366 3.140625q0 0.734375 -0.21875 1.359375q-0.203125 0.625 -0.59375 1.0625q-0.390625 0.4375 -0.953125 0.6875q-0.5625 0.234375 -1.28125 0.234375q-0.6875 0 -1.234375 -0.203125q-0.546875 -0.21875 -0.921875 -0.625q-0.375 -0.421875 -0.578125 -1.03125q-0.203125 -0.609375 -0.203125 -1.40625q0 -0.734375 0.203125 -1.34375q0.21875 -0.609375 0.609375 -1.046875q0.40625 -0.453125 0.96875 -0.6875q0.5625 -0.25 1.28125 -0.25q0.6875 0 1.21875 0.21875q0.546875 0.203125 0.921875 0.609375q0.375 0.40625 0.578125 1.015625q0.203125 0.609375 0.203125 1.40625zm-1.125 0.046875q0 -0.59375 -0.140625 -1.03125q-0.125 -0.4375 -0.375 -0.734375q-0.234375 -0.296875 -0.578125 -0.4375q-0.34375 -0.15625 -0.765625 -0.15625q-0.5 0 -0.859375 0.203125q-0.34375 0.1875 -0.578125 0.515625q-0.21875 0.3125 -0.328125 0.75q-0.09375 0.421875 -0.09375 0.890625q0 0.59375 0.125 1.046875q0.125 0.4375 0.359375 0.734375q0.25 0.28125 0.59375 0.4375q0.34375 0.15625 0.78125 0.15625q0.484375 0 0.84375 -0.1875q0.359375 -0.203125 0.578125 -0.53125q0.21875 -0.328125 0.328125 -0.75q0.109375 -0.421875 0.109375 -0.90625zm3.1716156 -3.1875l1.0 0l0.03125 1.171875q0.5625 -0.671875 1.109375 -0.96875q0.5625 -0.3125 1.109375 -0.3125q1.0 0 1.5 0.640625q0.515625 0.640625 0.484375 1.90625l-1.125 0q0.03125 -0.84375 -0.234375 -1.21875q-0.265625 -0.375 -0.78125 -0.375q-0.21875 0 -0.453125 0.078125q-0.21875 0.078125 -0.453125 0.25q-0.234375 0.171875 -0.5 0.453125q-0.265625 0.265625 -0.578125 0.65625l0 4.09375l-1.109375 0l0 -6.375zm11.609116 6.375l0 -4.578125q0 -0.296875 -0.03125 -0.484375q-0.015625 -0.1875 -0.0625 -0.296875q-0.046875 -0.125 -0.125 -0.15625q-0.0625 -0.046875 -0.171875 -0.046875q-0.125 0 -0.234375 0.078125q-0.109375 0.0625 -0.234375 0.234375q-0.125 0.171875 -0.28125 0.46875q-0.140625 0.28125 -0.34375 0.6875l0 4.09375l-1.015625 0l0 -4.453125q0 -0.359375 -0.03125 -0.5625q-0.015625 -0.21875 -0.0625 -0.34375q-0.046875 -0.125 -0.125 -0.15625q-0.0625 -0.046875 -0.171875 -0.046875q-0.125 0 -0.234375 0.0625q-0.09375 0.0625 -0.21875 0.234375q-0.125 0.15625 -0.28125 0.453125q-0.140625 0.28125 -0.34375 0.71875l0 4.09375l-1.015625 0l0 -6.375l0.84375 0l0.046875 1.21875q0.15625 -0.359375 0.3125 -0.609375q0.15625 -0.265625 0.3125 -0.421875q0.171875 -0.15625 0.359375 -0.21875q0.1875 -0.078125 0.421875 -0.078125q0.515625 0 0.78125 0.34375q0.265625 0.328125 0.265625 1.03125q0.15625 -0.328125 0.296875 -0.578125q0.15625 -0.265625 0.3125 -0.4375q0.171875 -0.171875 0.375 -0.265625q0.203125 -0.09375 0.46875 -0.09375q1.203125 0 1.203125 1.84375l0 4.640625l-1.015625 0zm4.9528656 -5.453125l-1.890625 0l0 -0.921875l3.0 0l0 5.453125l1.90625 0l0 0.921875l-5.109375 0l0 -0.921875l2.09375 0l0 -4.53125zm0.390625 -3.59375q0.1875 0 0.34375 0.078125q0.15625 0.0625 0.265625 0.1875q0.125 0.109375 0.1875 0.265625q0.0625 0.15625 0.0625 0.34375q0 0.171875 -0.0625 0.328125q-0.0625 0.15625 -0.1875 0.28125q-0.109375 0.125 -0.265625 0.1875q-0.15625 0.0625 -0.34375 0.0625q-0.1875 0 -0.34375 -0.0625q-0.15625 -0.0625 -0.28125 -0.1875q-0.109375 -0.125 -0.1875 -0.28125q-0.0625 -0.15625 -0.0625 -0.328125q0 -0.1875 0.0625 -0.34375q0.078125 -0.15625 0.1875 -0.265625q0.125 -0.125 0.28125 -0.1875q0.15625 -0.078125 0.34375 -0.078125zm4.7653656 2.671875l0.984375 0l0.046875 1.03125q0.28125 -0.328125 0.53125 -0.546875q0.265625 -0.21875 0.515625 -0.34375q0.25 -0.140625 0.5 -0.1875q0.265625 -0.0625 0.546875 -0.0625q0.984375 0 1.484375 0.578125q0.515625 0.578125 0.515625 1.75l0 4.15625l-1.109375 0l0 -4.0625q0 -0.75 -0.28125 -1.109375q-0.28125 -0.359375 -0.828125 -0.359375q-0.203125 0 -0.40625 0.0625q-0.1875 0.046875 -0.40625 0.203125q-0.203125 0.15625 -0.453125 0.40625q-0.234375 0.25 -0.53125 0.625l0 4.234375l-1.109375 0l0 -6.375zm11.921616 0.90625q0.171875 0.21875 0.265625 0.515625q0.109375 0.296875 0.109375 0.640625q0 0.484375 -0.1875 0.90625q-0.171875 0.40625 -0.515625 0.703125q-0.328125 0.28125 -0.796875 0.453125q-0.453125 0.15625 -1.0 0.15625q-0.40625 0 -0.75 -0.078125q-0.34375 -0.09375 -0.546875 -0.21875q-0.125 0.171875 -0.21875 0.34375q-0.078125 0.15625 -0.078125 0.34375q0 0.25 0.234375 0.40625q0.234375 0.15625 0.625 0.171875l1.671875 0.0625q0.46875 0.015625 0.875 0.125q0.40625 0.09375 0.6875 0.296875q0.296875 0.203125 0.453125 0.515625q0.171875 0.296875 0.171875 0.6875q0 0.421875 -0.1875 0.796875q-0.1875 0.390625 -0.578125 0.671875q-0.375 0.296875 -0.96875 0.46875q-0.59375 0.171875 -1.40625 0.171875q-0.765625 0 -1.3125 -0.125q-0.546875 -0.125 -0.890625 -0.34375q-0.34375 -0.21875 -0.515625 -0.53125q-0.15625 -0.296875 -0.15625 -0.65625q0 -0.46875 0.21875 -0.8125q0.21875 -0.34375 0.671875 -0.671875q-0.171875 -0.078125 -0.296875 -0.1875q-0.109375 -0.125 -0.1875 -0.25q-0.078125 -0.140625 -0.125 -0.296875q-0.03125 -0.15625 -0.03125 -0.296875q0 -0.40625 0.1875 -0.75q0.203125 -0.34375 0.46875 -0.65625q-0.125 -0.140625 -0.21875 -0.28125q-0.09375 -0.140625 -0.15625 -0.296875q-0.0625 -0.171875 -0.109375 -0.359375q-0.03125 -0.1875 -0.03125 -0.421875q0 -0.5 0.1875 -0.90625q0.1875 -0.40625 0.5 -0.6875q0.328125 -0.296875 0.78125 -0.453125q0.46875 -0.171875 1.03125 -0.171875q0.234375 0 0.453125 0.03125q0.21875 0.03125 0.375 0.078125l2.3125 0l0 0.90625l-1.015625 0zm-3.84375 6.390625q0 0.453125 0.46875 0.65625q0.46875 0.203125 1.3125 0.203125q0.53125 0 0.890625 -0.09375q0.359375 -0.09375 0.578125 -0.25q0.21875 -0.15625 0.3125 -0.359375q0.09375 -0.203125 0.09375 -0.40625q0 -0.390625 -0.328125 -0.578125q-0.3125 -0.171875 -0.96875 -0.203125l-1.65625 -0.0625q-0.203125 0.140625 -0.34375 0.265625q-0.140625 0.140625 -0.21875 0.28125q-0.078125 0.140625 -0.109375 0.265625q-0.03125 0.140625 -0.03125 0.28125zm0.34375 -5.21875q0 0.3125 0.09375 0.5625q0.109375 0.25 0.28125 0.4375q0.1875 0.171875 0.4375 0.28125q0.265625 0.09375 0.5625 0.09375q0.328125 0 0.578125 -0.109375q0.265625 -0.125 0.4375 -0.3125q0.171875 -0.1875 0.265625 -0.4375q0.09375 -0.25 0.09375 -0.515625q0 -0.296875 -0.109375 -0.546875q-0.09375 -0.265625 -0.28125 -0.4375q-0.171875 -0.171875 -0.421875 -0.265625q-0.25 -0.109375 -0.5625 -0.109375q-0.328125 0 -0.59375 0.125q-0.25 0.109375 -0.421875 0.296875q-0.171875 0.1875 -0.265625 0.4375q-0.09375 0.234375 -0.09375 0.5zm10.687241 1.359375l-3.796875 0l0 -1.046875l3.796875 0l0 1.046875zm7.8278656 2.703125q-0.4375 0.171875 -0.890625 0.25q-0.453125 0.078125 -0.9375 0.078125q-1.5 0 -2.328125 -0.8125q-0.8125 -0.828125 -0.8125 -2.40625q0 -0.75 0.234375 -1.359375q0.234375 -0.625 0.65625 -1.0625q0.4375 -0.4375 1.015625 -0.671875q0.59375 -0.25 1.3125 -0.25q0.484375 0 0.921875 0.078125q0.4375 0.0625 0.828125 0.234375l0 1.046875q-0.421875 -0.21875 -0.84375 -0.3125q-0.421875 -0.09375 -0.890625 -0.09375q-0.421875 0 -0.796875 0.15625q-0.375 0.15625 -0.671875 0.46875q-0.28125 0.296875 -0.453125 0.734375q-0.15625 0.4375 -0.15625 1.0q0 1.15625 0.5625 1.734375q0.5625 0.5625 1.5625 0.5625q0.453125 0 0.875 -0.09375q0.421875 -0.109375 0.8125 -0.3125l0 1.03125zm7.9216156 -3.0q0 0.734375 -0.21875 1.359375q-0.203125 0.625 -0.59375 1.0625q-0.390625 0.4375 -0.953125 0.6875q-0.5625 0.234375 -1.28125 0.234375q-0.6875 0 -1.234375 -0.203125q-0.546875 -0.21875 -0.921875 -0.625q-0.375 -0.421875 -0.578125 -1.03125q-0.203125 -0.609375 -0.203125 -1.40625q0 -0.734375 0.203125 -1.34375q0.21875 -0.609375 0.609375 -1.046875q0.40625 -0.453125 0.96875 -0.6875q0.5625 -0.25 1.28125 -0.25q0.6875 0 1.21875 0.21875q0.546875 0.203125 0.921875 0.609375q0.375 0.40625 0.578125 1.015625q0.203125 0.609375 0.203125 1.40625zm-1.125 0.046875q0 -0.59375 -0.140625 -1.03125q-0.125 -0.4375 -0.375 -0.734375q-0.234375 -0.296875 -0.578125 -0.4375q-0.34375 -0.15625 -0.765625 -0.15625q-0.5 0 -0.859375 0.203125q-0.34375 0.1875 -0.578125 0.515625q-0.21875 0.3125 -0.328125 0.75q-0.09375 0.421875 -0.09375 0.890625q0 0.59375 0.125 1.046875q0.125 0.4375 0.359375 0.734375q0.25 0.28125 0.59375 0.4375q0.34375 0.15625 0.78125 0.15625q0.484375 0 0.84375 -0.1875q0.359375 -0.203125 0.578125 -0.53125q0.21875 -0.328125 0.328125 -0.75q0.109375 -0.421875 0.109375 -0.90625zm2.9059906 -3.1875l0.984375 0l0.046875 1.03125q0.28125 -0.328125 0.53125 -0.546875q0.265625 -0.21875 0.515625 -0.34375q0.25 -0.140625 0.5 -0.1875q0.265625 -0.0625 0.546875 -0.0625q0.984375 0 1.484375 0.578125q0.515625 0.578125 0.515625 1.75l0 4.15625l-1.109375 0l0 -4.0625q0 -0.75 -0.28125 -1.109375q-0.28125 -0.359375 -0.828125 -0.359375q-0.203125 0 -0.40625 0.0625q-0.1875 0.046875 -0.40625 0.203125q-0.203125 0.15625 -0.453125 0.40625q-0.234375 0.25 -0.53125 0.625l0 4.234375l-1.109375 0l0 -6.375zm12.468491 6.28125q-0.375 0.09375 -0.78125 0.140625q-0.390625 0.046875 -0.8125 0.046875q-1.203125 0 -1.796875 -0.546875q-0.578125 -0.546875 -0.578125 -1.671875l0 -3.328125l-1.78125 0l0 -0.921875l1.78125 0l0 -1.75l1.09375 -0.28125l0 2.03125l2.875 0l0 0.921875l-2.875 0l0 3.25q0 0.671875 0.359375 1.015625q0.375 0.34375 1.09375 0.34375q0.296875 0 0.65625 -0.046875q0.359375 -0.046875 0.765625 -0.15625l0 0.953125zm6.2809906 0.09375l-0.03125 -0.859375q-0.515625 0.515625 -1.0625 0.75q-0.53125 0.21875 -1.109375 0.21875q-0.546875 0 -0.9375 -0.140625q-0.390625 -0.140625 -0.640625 -0.375q-0.25 -0.25 -0.375 -0.578125q-0.109375 -0.328125 -0.109375 -0.71875q0 -0.953125 0.703125 -1.5q0.71875 -0.546875 2.125 -0.546875l1.3125 0l0 -0.546875q0 -0.578125 -0.359375 -0.90625q-0.359375 -0.34375 -1.109375 -0.34375q-0.53125 0 -1.0625 0.125q-0.515625 0.109375 -1.078125 0.34375l0 -1.0q0.21875 -0.078125 0.46875 -0.140625q0.25 -0.078125 0.53125 -0.140625q0.296875 -0.0625 0.609375 -0.09375q0.3125 -0.03125 0.625 -0.03125q0.578125 0 1.03125 0.125q0.46875 0.125 0.78125 0.390625q0.328125 0.25 0.5 0.65625q0.171875 0.390625 0.171875 0.921875l0 4.390625l-0.984375 0zm-0.125 -2.90625l-1.390625 0q-0.421875 0 -0.71875 0.09375q-0.296875 0.078125 -0.484375 0.234375q-0.1875 0.140625 -0.28125 0.359375q-0.09375 0.21875 -0.09375 0.484375q0 0.171875 0.046875 0.34375q0.0625 0.171875 0.1875 0.3125q0.125 0.125 0.328125 0.203125q0.203125 0.0625 0.5 0.0625q0.375 0 0.859375 -0.21875q0.5 -0.234375 1.046875 -0.734375l0 -1.140625zm5.5309906 -2.546875l-1.890625 0l0 -0.921875l3.0 0l0 5.453125l1.90625 0l0 0.921875l-5.109375 0l0 -0.921875l2.09375 0l0 -4.53125zm0.390625 -3.59375q0.1875 0 0.34375 0.078125q0.15625 0.0625 0.265625 0.1875q0.125 0.109375 0.1875 0.265625q0.0625 0.15625 0.0625 0.34375q0 0.171875 -0.0625 0.328125q-0.0625 0.15625 -0.1875 0.28125q-0.109375 0.125 -0.265625 0.1875q-0.15625 0.0625 -0.34375 0.0625q-0.1875 0 -0.34375 -0.0625q-0.15625 -0.0625 -0.28125 -0.1875q-0.109375 -0.125 -0.1875 -0.28125q-0.0625 -0.15625 -0.0625 -0.328125q0 -0.1875 0.0625 -0.34375q0.078125 -0.15625 0.1875 -0.265625q0.125 -0.125 0.28125 -0.1875q0.15625 -0.078125 0.34375 -0.078125zm4.7653656 2.671875l0.984375 0l0.046875 1.03125q0.28125 -0.328125 0.53125 -0.546875q0.265625 -0.21875 0.515625 -0.34375q0.25 -0.140625 0.5 -0.1875q0.265625 -0.0625 0.546875 -0.0625q0.984375 0 1.484375 0.578125q0.515625 0.578125 0.515625 1.75l0 4.15625l-1.109375 0l0 -4.0625q0 -0.75 -0.28125 -1.109375q-0.28125 -0.359375 -0.828125 -0.359375q-0.203125 0 -0.40625 0.0625q-0.1875 0.046875 -0.40625 0.203125q-0.203125 0.15625 -0.453125 0.40625q-0.234375 0.25 -0.53125 0.625l0 4.234375l-1.109375 0l0 -6.375zm12.718491 2.859375q0 0.234375 -0.015625 0.390625q0 0.15625 -0.015625 0.296875l-4.484375 0q0 0.96875 0.546875 1.5q0.546875 0.515625 1.578125 0.515625q0.28125 0 0.5625 -0.015625q0.28125 -0.015625 0.53125 -0.046875q0.265625 -0.046875 0.5 -0.09375q0.25 -0.046875 0.453125 -0.109375l0 0.90625q-0.453125 0.125 -1.03125 0.203125q-0.5625 0.078125 -1.171875 0.078125q-0.8125 0 -1.40625 -0.21875q-0.59375 -0.21875 -0.96875 -0.640625q-0.375 -0.421875 -0.5625 -1.03125q-0.171875 -0.625 -0.171875 -1.390625q0 -0.671875 0.1875 -1.265625q0.1875 -0.609375 0.5625 -1.0625q0.375 -0.453125 0.90625 -0.71875q0.546875 -0.265625 1.234375 -0.265625q0.65625 0 1.171875 0.21875q0.515625 0.203125 0.859375 0.59375q0.359375 0.375 0.546875 0.921875q0.1875 0.546875 0.1875 1.234375zm-1.15625 -0.171875q0.015625 -0.421875 -0.09375 -0.765625q-0.09375 -0.359375 -0.3125 -0.609375q-0.203125 -0.25 -0.53125 -0.390625q-0.3125 -0.15625 -0.71875 -0.15625q-0.375 0 -0.671875 0.140625q-0.296875 0.140625 -0.515625 0.40625q-0.203125 0.25 -0.34375 0.609375q-0.125 0.34375 -0.171875 0.765625l3.359375 0zm3.3591156 -2.6875l1.0 0l0.03125 1.171875q0.5625 -0.671875 1.109375 -0.96875q0.5625 -0.3125 1.109375 -0.3125q1.0 0 1.5 0.640625q0.515625 0.640625 0.484375 1.90625l-1.125 0q0.03125 -0.84375 -0.234375 -1.21875q-0.265625 -0.375 -0.78125 -0.375q-0.21875 0 -0.453125 0.078125q-0.21875 0.078125 -0.453125 0.25q-0.234375 0.171875 -0.5 0.453125q-0.265625 0.265625 -0.578125 0.65625l0 4.09375l-1.109375 0l0 -6.375z"
       fill-rule="nonzero"
       id="path33" />
    <path
       fill="#f3f3f3"
       d="m388.0 27.015749l97.00787 0l0 33.984253l-97.00787 0z"
       fill-rule="nonzero"
       id="path35" />
    <path
       stroke="#434343"
       stroke-width="1.0"
       stroke-linejoin="round"
       stroke-linecap="butt"
       d="m388.0 27.015749l97.00787 0l0 33.984253l-97.00787 0z"
       fill-rule="nonzero"
       id="path37" />
    <path
       fill="#000000"
       d="m419.74844 50.92787l0 -13.59375l1.796875 0l0 11.984375l6.703125 0l0 1.609375l-8.5 0zm10.453827 0l0 -13.59375l4.6875 0q1.578125 0 2.421875 0.1875q1.15625 0.265625 1.984375 0.96875q1.078125 0.921875 1.609375 2.34375q0.53125 1.40625 0.53125 3.21875q0 1.546875 -0.359375 2.75q-0.359375 1.1875 -0.921875 1.984375q-0.5625 0.78125 -1.234375 1.234375q-0.671875 0.4375 -1.625 0.671875q-0.953125 0.234375 -2.1875 0.234375l-4.90625 0zm1.796875 -1.609375l2.90625 0q1.34375 0 2.109375 -0.25q0.765625 -0.25 1.21875 -0.703125q0.640625 -0.640625 1.0 -1.71875q0.359375 -1.078125 0.359375 -2.625q0 -2.125 -0.703125 -3.265625q-0.703125 -1.15625 -1.703125 -1.546875q-0.71875 -0.28125 -2.328125 -0.28125l-2.859375 0l0 10.390625zm11.676086 1.609375l0 -13.59375l5.125 0q1.359375 0 2.078125 0.125q1.0 0.171875 1.671875 0.640625q0.671875 0.46875 1.078125 1.3125q0.421875 0.84375 0.421875 1.84375q0 1.734375 -1.109375 2.9375q-1.09375 1.203125 -3.984375 1.203125l-3.484375 0l0 5.53125l-1.796875 0zm1.796875 -7.140625l3.515625 0q1.75 0 2.46875 -0.640625q0.734375 -0.65625 0.734375 -1.828125q0 -0.859375 -0.4375 -1.46875q-0.421875 -0.609375 -1.125 -0.796875q-0.453125 -0.125 -1.671875 -0.125l-3.484375 0l0 4.859375z"
       fill-rule="nonzero"
       id="path39" />
    <path
       fill="#000000"
       fill-opacity="0.0"
       d="m436.50394 61.0l2.4881897 381.00787"
       fill-rule="nonzero"
       id="path41" />
    <path
       stroke="#000000"
       stroke-width="2.0"
       stroke-linejoin="round"
       stroke-linecap="butt"
       stroke-dasharray="8.0,6.0"
       d="m436.50394 61.0l2.4881897 381.00787"
       fill-rule="nonzero"
       id="path43" />
    <path
       fill="#000000"
       fill-opacity="0.0"
       d="m260.0 246.0l175.49606 1.0078735"
       fill-rule="nonzero"
       id="path45" />
    <path
       stroke="#000000"
       stroke-width="2.0"
       stroke-linejoin="round"
       stroke-linecap="butt"
       d="m260.0 246.0l163.49628 0.9389496"
       fill-rule="evenodd"
       id="path47" />
    <path
       fill="#000000"
       stroke="#000000"
       stroke-width="2.0"
       stroke-linecap="butt"
       d="m423.4773 250.24237l9.095001 -3.2512817l-9.057068 -3.355545z"
       fill-rule="evenodd"
       id="path49" />
    <path
       fill="#000000"
       fill-opacity="0.0"
       d="m260.0 216.99213l182.01575 0l0 29.007874l-182.01575 0z"
       fill-rule="nonzero"
       id="path51" />
    <path
       fill="#000000"
       d="m273.58887 230.84294l-1.890625 0l0 -0.921875l3.0 0l0 5.453125l1.90625 0l0 0.921875l-5.109375 0l0 -0.921875l2.09375 0l0 -4.53125zm0.390625 -3.59375q0.1875 0 0.34375 0.078125q0.15625 0.0625 0.265625 0.1875q0.125 0.109375 0.1875 0.265625q0.0625 0.15625 0.0625 0.34375q0 0.171875 -0.0625 0.328125q-0.0625 0.15625 -0.1875 0.28125q-0.109375 0.125 -0.265625 0.1875q-0.15625 0.0625 -0.34375 0.0625q-0.1875 0 -0.34375 -0.0625q-0.15625 -0.0625 -0.28125 -0.1875q-0.109375 -0.125 -0.1875 -0.28125q-0.0625 -0.15625 -0.0625 -0.328125q0 -0.1875 0.0625 -0.34375q0.078125 -0.15625 0.1875 -0.265625q0.125 -0.125 0.28125 -0.1875q0.15625 -0.078125 0.34375 -0.078125zm9.812225 7.3125q0 0.328125 -0.125 0.59375q-0.109375 0.265625 -0.3125 0.484375q-0.1875 0.203125 -0.453125 0.34375q-0.25 0.140625 -0.546875 0.25q-0.296875 0.09375 -0.609375 0.125q-0.3125 0.046875 -0.609375 0.046875q-0.640625 0 -1.1875 -0.0625q-0.546875 -0.046875 -1.0625 -0.171875l0 -1.015625q0.5625 0.15625 1.109375 0.25q0.546875 0.078125 1.09375 0.078125q0.796875 0 1.171875 -0.21875q0.390625 -0.21875 0.390625 -0.625q0 -0.171875 -0.0625 -0.296875q-0.0625 -0.140625 -0.21875 -0.265625q-0.15625 -0.125 -0.5 -0.25q-0.328125 -0.140625 -0.90625 -0.3125q-0.421875 -0.125 -0.796875 -0.28125q-0.359375 -0.171875 -0.625 -0.390625q-0.265625 -0.21875 -0.421875 -0.515625q-0.15625 -0.296875 -0.15625 -0.703125q0 -0.265625 0.125 -0.578125q0.125 -0.328125 0.421875 -0.59375q0.296875 -0.28125 0.796875 -0.453125q0.515625 -0.1875 1.28125 -0.1875q0.375 0 0.828125 0.046875q0.453125 0.03125 0.953125 0.140625l0 0.984375q-0.515625 -0.140625 -0.984375 -0.1875q-0.46875 -0.0625 -0.8125 -0.0625q-0.40625 0 -0.6875 0.0625q-0.28125 0.0625 -0.46875 0.171875q-0.171875 0.109375 -0.25 0.265625q-0.0625 0.140625 -0.0625 0.3125q0 0.171875 0.0625 0.3125q0.0625 0.140625 0.234375 0.28125q0.1875 0.125 0.515625 0.25q0.328125 0.125 0.84375 0.28125q0.5625 0.171875 0.953125 0.359375q0.390625 0.171875 0.625 0.390625q0.25 0.21875 0.34375 0.5q0.109375 0.28125 0.109375 0.640625zm7.8747253 -5.59375l-2.46875 0l0 7.328125l-1.140625 0l0 -7.328125l-2.453125 0l0 -0.96875l6.0625 0l0 0.96875zm1.9997559 0.953125l1.0 0l0.03125 1.171875q0.5625 -0.671875 1.109375 -0.96875q0.5625 -0.3125 1.109375 -0.3125q1.0 0 1.5 0.640625q0.515625 0.640625 0.484375 1.90625l-1.125 0q0.03125 -0.84375 -0.234375 -1.21875q-0.265625 -0.375 -0.78125 -0.375q-0.21875 0 -0.453125 0.078125q-0.21875 0.078125 -0.453125 0.25q-0.234375 0.171875 -0.5 0.453125q-0.265625 0.265625 -0.578125 0.65625l0 4.09375l-1.109375 0l0 -6.375zm11.156006 6.375l-0.03125 -0.859375q-0.515625 0.515625 -1.0625 0.75q-0.53125 0.21875 -1.109375 0.21875q-0.546875 0 -0.9375 -0.140625q-0.390625 -0.140625 -0.640625 -0.375q-0.25 -0.25 -0.375 -0.578125q-0.109375 -0.328125 -0.109375 -0.71875q0 -0.953125 0.703125 -1.5q0.71875 -0.546875 2.125 -0.546875l1.3125 0l0 -0.546875q0 -0.578125 -0.359375 -0.90625q-0.359375 -0.34375 -1.109375 -0.34375q-0.53125 0 -1.0625 0.125q-0.515625 0.109375 -1.078125 0.34375l0 -1.0q0.21875 -0.078125 0.46875 -0.140625q0.25 -0.078125 0.53125 -0.140625q0.296875 -0.0625 0.609375 -0.09375q0.3125 -0.03125 0.625 -0.03125q0.578125 0 1.03125 0.125q0.46875 0.125 0.78125 0.390625q0.328125 0.25 0.5 0.65625q0.171875 0.390625 0.171875 0.921875l0 4.390625l-0.984375 0zm-0.125 -2.90625l-1.390625 0q-0.421875 0 -0.71875 0.09375q-0.296875 0.078125 -0.484375 0.234375q-0.1875 0.140625 -0.28125 0.359375q-0.09375 0.21875 -0.09375 0.484375q0 0.171875 0.046875 0.34375q0.0625 0.171875 0.1875 0.3125q0.125 0.125 0.328125 0.203125q0.203125 0.0625 0.5 0.0625q0.375 0 0.859375 -0.21875q0.5 -0.234375 1.046875 -0.734375l0 -1.140625zm3.3591003 -3.46875l0.984375 0l0.046875 1.03125q0.28125 -0.328125 0.53125 -0.546875q0.265625 -0.21875 0.515625 -0.34375q0.25 -0.140625 0.5 -0.1875q0.265625 -0.0625 0.546875 -0.0625q0.984375 0 1.484375 0.578125q0.515625 0.578125 0.515625 1.75l0 4.15625l-1.109375 0l0 -4.0625q0 -0.75 -0.28125 -1.109375q-0.28125 -0.359375 -0.828125 -0.359375q-0.203125 0 -0.40625 0.0625q-0.1875 0.046875 -0.40625 0.203125q-0.203125 0.15625 -0.453125 0.40625q-0.234375 0.25 -0.53125 0.625l0 4.234375l-1.109375 0l0 -6.375zm12.374725 4.640625q0 0.328125 -0.125 0.59375q-0.109375 0.265625 -0.3125 0.484375q-0.1875 0.203125 -0.453125 0.34375q-0.25 0.140625 -0.546875 0.25q-0.296875 0.09375 -0.609375 0.125q-0.3125 0.046875 -0.609375 0.046875q-0.640625 0 -1.1875 -0.0625q-0.546875 -0.046875 -1.0625 -0.171875l0 -1.015625q0.5625 0.15625 1.109375 0.25q0.546875 0.078125 1.09375 0.078125q0.796875 0 1.171875 -0.21875q0.390625 -0.21875 0.390625 -0.625q0 -0.171875 -0.0625 -0.296875q-0.0625 -0.140625 -0.21875 -0.265625q-0.15625 -0.125 -0.5 -0.25q-0.328125 -0.140625 -0.90625 -0.3125q-0.421875 -0.125 -0.796875 -0.28125q-0.359375 -0.171875 -0.625 -0.390625q-0.265625 -0.21875 -0.421875 -0.515625q-0.15625 -0.296875 -0.15625 -0.703125q0 -0.265625 0.125 -0.578125q0.125 -0.328125 0.421875 -0.59375q0.296875 -0.28125 0.796875 -0.453125q0.515625 -0.1875 1.28125 -0.1875q0.375 0 0.828125 0.046875q0.453125 0.03125 0.953125 0.140625l0 0.984375q-0.515625 -0.140625 -0.984375 -0.1875q-0.46875 -0.0625 -0.8125 -0.0625q-0.40625 0 -0.6875 0.0625q-0.28125 0.0625 -0.46875 0.171875q-0.171875 0.109375 -0.25 0.265625q-0.0625 0.140625 -0.0625 0.3125q0 0.171875 0.0625 0.3125q0.0625 0.140625 0.234375 0.28125q0.1875 0.125 0.515625 0.25q0.328125 0.125 0.84375 0.28125q0.5625 0.171875 0.953125 0.359375q0.390625 0.171875 0.625 0.390625q0.25 0.21875 0.34375 0.5q0.109375 0.28125 0.109375 0.640625zm7.937256 -6.203125q-0.875 -0.1875 -1.5 -0.1875q-1.484375 0 -1.484375 1.5625l0 1.109375l2.78125 0l0 0.921875l-2.78125 0l0 4.53125l-1.125 0l0 -4.53125l-2.046875 0l0 -0.921875l2.046875 0l0 -1.046875q0 -2.546875 2.65625 -2.546875q0.65625 0 1.453125 0.15625l0 0.953125zm-6.671875 1.5625l0 0zm13.890381 3.140625q0 0.734375 -0.21875 1.359375q-0.203125 0.625 -0.59375 1.0625q-0.390625 0.4375 -0.953125 0.6875q-0.5625 0.234375 -1.28125 0.234375q-0.6875 0 -1.234375 -0.203125q-0.546875 -0.21875 -0.921875 -0.625q-0.375 -0.421875 -0.578125 -1.03125q-0.203125 -0.609375 -0.203125 -1.40625q0 -0.734375 0.203125 -1.34375q0.21875 -0.609375 0.609375 -1.046875q0.40625 -0.453125 0.96875 -0.6875q0.5625 -0.25 1.28125 -0.25q0.6875 0 1.21875 0.21875q0.546875 0.203125 0.921875 0.609375q0.375 0.40625 0.578125 1.015625q0.203125 0.609375 0.203125 1.40625zm-1.125 0.046875q0 -0.59375 -0.140625 -1.03125q-0.125 -0.4375 -0.375 -0.734375q-0.234375 -0.296875 -0.578125 -0.4375q-0.34375 -0.15625 -0.765625 -0.15625q-0.5 0 -0.859375 0.203125q-0.34375 0.1875 -0.578125 0.515625q-0.21875 0.3125 -0.328125 0.75q-0.09375 0.421875 -0.09375 0.890625q0 0.59375 0.125 1.046875q0.125 0.4375 0.359375 0.734375q0.25 0.28125 0.59375 0.4375q0.34375 0.15625 0.78125 0.15625q0.484375 0 0.84375 -0.1875q0.359375 -0.203125 0.578125 -0.53125q0.21875 -0.328125 0.328125 -0.75q0.109375 -0.421875 0.109375 -0.90625zm3.1716003 -3.1875l1.0 0l0.03125 1.171875q0.5625 -0.671875 1.109375 -0.96875q0.5625 -0.3125 1.109375 -0.3125q1.0 0 1.5 0.640625q0.515625 0.640625 0.484375 1.90625l-1.125 0q0.03125 -0.84375 -0.234375 -1.21875q-0.265625 -0.375 -0.78125 -0.375q-0.21875 0 -0.453125 0.078125q-0.21875 0.078125 -0.453125 0.25q-0.234375 0.171875 -0.5 0.453125q-0.265625 0.265625 -0.578125 0.65625l0 4.09375l-1.109375 0l0 -6.375zm11.6091 6.375l0 -4.578125q0 -0.296875 -0.03125 -0.484375q-0.015625 -0.1875 -0.0625 -0.296875q-0.046875 -0.125 -0.125 -0.15625q-0.0625 -0.046875 -0.171875 -0.046875q-0.125 0 -0.234375 0.078125q-0.109375 0.0625 -0.234375 0.234375q-0.125 0.171875 -0.28125 0.46875q-0.140625 0.28125 -0.34375 0.6875l0 4.09375l-1.015625 0l0 -4.453125q0 -0.359375 -0.03125 -0.5625q-0.015625 -0.21875 -0.0625 -0.34375q-0.046875 -0.125 -0.125 -0.15625q-0.0625 -0.046875 -0.171875 -0.046875q-0.125 0 -0.234375 0.0625q-0.09375 0.0625 -0.21875 0.234375q-0.125 0.15625 -0.28125 0.453125q-0.140625 0.28125 -0.34375 0.71875l0 4.09375l-1.015625 0l0 -6.375l0.84375 0l0.046875 1.21875q0.15625 -0.359375 0.3125 -0.609375q0.15625 -0.265625 0.3125 -0.421875q0.171875 -0.15625 0.359375 -0.21875q0.1875 -0.078125 0.421875 -0.078125q0.515625 0 0.78125 0.34375q0.265625 0.328125 0.265625 1.03125q0.15625 -0.328125 0.296875 -0.578125q0.15625 -0.265625 0.3125 -0.4375q0.171875 -0.171875 0.375 -0.265625q0.203125 -0.09375 0.46875 -0.09375q1.203125 0 1.203125 1.84375l0 4.640625l-1.015625 0zm6.874756 0l-0.03125 -0.859375q-0.515625 0.515625 -1.0625 0.75q-0.53125 0.21875 -1.109375 0.21875q-0.546875 0 -0.9375 -0.140625q-0.390625 -0.140625 -0.640625 -0.375q-0.25 -0.25 -0.375 -0.578125q-0.109375 -0.328125 -0.109375 -0.71875q0 -0.953125 0.703125 -1.5q0.71875 -0.546875 2.125 -0.546875l1.3125 0l0 -0.546875q0 -0.578125 -0.359375 -0.90625q-0.359375 -0.34375 -1.109375 -0.34375q-0.53125 0 -1.0625 0.125q-0.515625 0.109375 -1.078125 0.34375l0 -1.0q0.21875 -0.078125 0.46875 -0.140625q0.25 -0.078125 0.53125 -0.140625q0.296875 -0.0625 0.609375 -0.09375q0.3125 -0.03125 0.625 -0.03125q0.578125 0 1.03125 0.125q0.46875 0.125 0.78125 0.390625q0.328125 0.25 0.5 0.65625q0.171875 0.390625 0.171875 0.921875l0 4.390625l-0.984375 0zm-0.125 -2.90625l-1.390625 0q-0.421875 0 -0.71875 0.09375q-0.296875 0.078125 -0.484375 0.234375q-0.1875 0.140625 -0.28125 0.359375q-0.09375 0.21875 -0.09375 0.484375q0 0.171875 0.046875 0.34375q0.0625 0.171875 0.1875 0.3125q0.125 0.125 0.328125 0.203125q0.203125 0.0625 0.5 0.0625q0.375 0 0.859375 -0.21875q0.5 -0.234375 1.046875 -0.734375l0 -1.140625zm8.499756 2.8125q-0.375 0.09375 -0.78125 0.140625q-0.390625 0.046875 -0.8125 0.046875q-1.203125 0 -1.796875 -0.546875q-0.578125 -0.546875 -0.578125 -1.671875l0 -3.328125l-1.78125 0l0 -0.921875l1.78125 0l0 -1.75l1.09375 -0.28125l0 2.03125l2.875 0l0 0.921875l-2.875 0l0 3.25q0 0.671875 0.359375 1.015625q0.375 0.34375 1.09375 0.34375q0.296875 0 0.65625 -0.046875q0.359375 -0.046875 0.765625 -0.15625l0 0.953125zm4.3591003 -5.359375l-1.890625 0l0 -0.921875l3.0 0l0 5.453125l1.90625 0l0 0.921875l-5.109375 0l0 -0.921875l2.09375 0l0 -4.53125zm0.390625 -3.59375q0.1875 0 0.34375 0.078125q0.15625 0.0625 0.265625 0.1875q0.125 0.109375 0.1875 0.265625q0.0625 0.15625 0.0625 0.34375q0 0.171875 -0.0625 0.328125q-0.0625 0.15625 -0.1875 0.28125q-0.109375 0.125 -0.265625 0.1875q-0.15625 0.0625 -0.34375 0.0625q-0.1875 0 -0.34375 -0.0625q-0.15625 -0.0625 -0.28125 -0.1875q-0.109375 -0.125 -0.1875 -0.28125q-0.0625 -0.15625 -0.0625 -0.328125q0 -0.1875 0.0625 -0.34375q0.078125 -0.15625 0.1875 -0.265625q0.125 -0.125 0.28125 -0.1875q0.15625 -0.078125 0.34375 -0.078125zm10.312225 5.8125q0 0.734375 -0.21875 1.359375q-0.203125 0.625 -0.59375 1.0625q-0.390625 0.4375 -0.953125 0.6875q-0.5625 0.234375 -1.28125 0.234375q-0.6875 0 -1.234375 -0.203125q-0.546875 -0.21875 -0.921875 -0.625q-0.375 -0.421875 -0.578125 -1.03125q-0.203125 -0.609375 -0.203125 -1.40625q0 -0.734375 0.203125 -1.34375q0.21875 -0.609375 0.609375 -1.046875q0.40625 -0.453125 0.96875 -0.6875q0.5625 -0.25 1.28125 -0.25q0.6875 0 1.21875 0.21875q0.546875 0.203125 0.921875 0.609375q0.375 0.40625 0.578125 1.015625q0.203125 0.609375 0.203125 1.40625zm-1.125 0.046875q0 -0.59375 -0.140625 -1.03125q-0.125 -0.4375 -0.375 -0.734375q-0.234375 -0.296875 -0.578125 -0.4375q-0.34375 -0.15625 -0.765625 -0.15625q-0.5 0 -0.859375 0.203125q-0.34375 0.1875 -0.578125 0.515625q-0.21875 0.3125 -0.328125 0.75q-0.09375 0.421875 -0.09375 0.890625q0 0.59375 0.125 1.046875q0.125 0.4375 0.359375 0.734375q0.25 0.28125 0.59375 0.4375q0.34375 0.15625 0.78125 0.15625q0.484375 0 0.84375 -0.1875q0.359375 -0.203125 0.578125 -0.53125q0.21875 -0.328125 0.328125 -0.75q0.109375 -0.421875 0.109375 -0.90625zm2.9060059 -3.1875l0.984375 0l0.046875 1.03125q0.28125 -0.328125 0.53125 -0.546875q0.265625 -0.21875 0.515625 -0.34375q0.25 -0.140625 0.5 -0.1875q0.265625 -0.0625 0.546875 -0.0625q0.984375 0 1.484375 0.578125q0.515625 0.578125 0.515625 1.75l0 4.15625l-1.109375 0l0 -4.0625q0 -0.75 -0.28125 -1.109375q-0.28125 -0.359375 -0.828125 -0.359375q-0.203125 0 -0.40625 0.0625q-0.1875 0.046875 -0.40625 0.203125q-0.203125 0.15625 -0.453125 0.40625q-0.234375 0.25 -0.53125 0.625l0 4.234375l-1.109375 0l0 -6.375zm12.562256 6.375l-4.765625 0l0 -8.296875l1.140625 0l0 7.328125l3.625 0l0 0.96875zm7.7653503 -4.234375q0 0.59375 -0.09375 1.140625q-0.09375 0.546875 -0.296875 1.015625q-0.203125 0.46875 -0.53125 0.859375q-0.3125 0.375 -0.796875 0.65625q-0.46875 0.265625 -1.09375 0.421875q-0.609375 0.140625 -1.40625 0.140625l-1.78125 0l0 -8.296875l2.140625 0q1.953125 0 2.90625 1.0q0.953125 1.0 0.953125 3.0625zm-1.1875 0.078125q0 -0.890625 -0.171875 -1.5q-0.15625 -0.609375 -0.5 -0.984375q-0.328125 -0.375 -0.84375 -0.53125q-0.5 -0.171875 -1.1875 -0.171875l-0.96875 0l0 6.359375l0.84375 0q2.828125 0 2.828125 -3.171875zm8.280975 -1.59375q0 0.5 -0.203125 1.0q-0.1875 0.5 -0.59375 0.890625q-0.390625 0.390625 -1.015625 0.640625q-0.609375 0.234375 -1.484375 0.234375l-1.015625 0l0 2.984375l-1.140625 0l0 -8.296875l2.34375 0q0.609375 0 1.171875 0.140625q0.5625 0.125 0.984375 0.4375q0.4375 0.296875 0.6875 0.78125q0.265625 0.484375 0.265625 1.1875zm-1.171875 0.046875q0 -0.796875 -0.53125 -1.21875q-0.515625 -0.4375 -1.46875 -0.4375l-1.140625 0l0 3.421875l1.046875 0q1.0 0 1.546875 -0.4375q0.546875 -0.4375 0.546875 -1.328125zm8.359131 5.390625q-1.0 0.421875 -2.078125 0.421875q-1.765625 0 -2.71875 -1.046875q-0.9375 -1.0625 -0.9375 -3.125q0 -0.984375 0.265625 -1.796875q0.265625 -0.8125 0.734375 -1.359375q0.484375 -0.5625 1.171875 -0.859375q0.6875 -0.3125 1.546875 -0.3125q0.578125 0 1.0625 0.09375q0.5 0.09375 0.953125 0.296875l0 1.109375q-0.453125 -0.25 -0.9375 -0.375q-0.46875 -0.125 -1.046875 -0.125q-0.578125 0 -1.0625 0.21875q-0.46875 0.21875 -0.796875 0.640625q-0.328125 0.40625 -0.515625 1.015625q-0.171875 0.59375 -0.171875 1.359375q0 1.609375 0.65625 2.4375q0.65625 0.8125 1.921875 0.8125q0.53125 0 1.015625 -0.125q0.484375 -0.125 0.9375 -0.34375l0 1.0625zm5.843506 2.984375q-2.921875 -2.71875 -2.921875 -6.0q0 -0.765625 0.15625 -1.53125q0.15625 -0.765625 0.5 -1.53125q0.34375 -0.765625 0.90625 -1.53125q0.578125 -0.78125 1.390625 -1.53125l0.640625 0.65625q-2.46875 2.4375 -2.46875 5.390625q0 1.46875 0.625 2.828125q0.625 1.359375 1.84375 2.5625l-0.671875 0.6875zm4.8122253 -12.125q2.9375 2.71875 2.9375 6.03125q0 0.6875 -0.140625 1.421875q-0.140625 0.734375 -0.484375 1.515625q-0.328125 0.765625 -0.90625 1.546875q-0.5625 0.796875 -1.421875 1.609375l-0.640625 -0.65625q1.234375 -1.234375 1.84375 -2.5625q0.609375 -1.328125 0.609375 -2.796875q0 -3.015625 -2.453125 -5.421875l0.65625 -0.6875z"
       fill-rule="nonzero"
       id="path53" />
    <path
       fill="#000000"
       fill-opacity="0.0"
       d="m265.0 271.0l170.99213 -0.50393677"
       fill-rule="nonzero"
       id="path55" />
    <path
       stroke="#000000"
       stroke-width="2.0"
       stroke-linejoin="round"
       stroke-linecap="butt"
       stroke-dasharray="2.0,6.0"
       d="m276.99994 270.96463l158.99219 -0.4685669"
       fill-rule="evenodd"
       id="path57" />
    <path
       fill="#000000"
       stroke="#000000"
       stroke-width="2.0"
       stroke-linecap="butt"
       d="m276.9902 267.6612l-9.066406 3.3302002l9.085876 3.276703z"
       fill-rule="evenodd"
       id="path59" />
    <path
       fill="#f3f3f3"
       d="m545.01575 27.015749l132.0 0l0 33.984253l-132.0 0z"
       fill-rule="nonzero"
       id="path61" />
    <path
       stroke="#434343"
       stroke-width="1.0"
       stroke-linejoin="round"
       stroke-linecap="butt"
       d="m545.01575 27.015749l132.0 0l0 33.984253l-132.0 0z"
       fill-rule="nonzero"
       id="path63" />
    <path
       fill="#000000"
       d="m565.14307 50.92787l0 -12.0l-4.46875 0l0 -1.59375l10.765625 0l0 1.59375l-4.5 0l0 12.0l-1.796875 0zm7.708496 0l0 -9.859375l1.5 0l0 1.5q0.578125 -1.046875 1.0625 -1.375q0.484375 -0.34375 1.078125 -0.34375q0.84375 0 1.71875 0.546875l-0.578125 1.546875q-0.609375 -0.359375 -1.234375 -0.359375q-0.546875 0 -0.984375 0.328125q-0.421875 0.328125 -0.609375 0.90625q-0.28125 0.890625 -0.28125 1.953125l0 5.15625l-1.671875 0zm12.6657715 -1.21875q-0.9375 0.796875 -1.796875 1.125q-0.859375 0.3125 -1.84375 0.3125q-1.609375 0 -2.484375 -0.78125q-0.875 -0.796875 -0.875 -2.03125q0 -0.734375 0.328125 -1.328125q0.328125 -0.59375 0.859375 -0.953125q0.53125 -0.359375 1.203125 -0.546875q0.5 -0.140625 1.484375 -0.25q2.03125 -0.25 2.984375 -0.578125q0 -0.34375 0 -0.4375q0 -1.015625 -0.46875 -1.4375q-0.640625 -0.5625 -1.90625 -0.5625q-1.171875 0 -1.734375 0.40625q-0.5625 0.40625 -0.828125 1.46875l-1.640625 -0.234375q0.234375 -1.046875 0.734375 -1.6875q0.515625 -0.640625 1.46875 -0.984375q0.96875 -0.359375 2.25 -0.359375q1.265625 0 2.046875 0.296875q0.78125 0.296875 1.15625 0.75q0.375 0.453125 0.515625 1.140625q0.09375 0.421875 0.09375 1.53125l0 2.234375q0 2.328125 0.09375 2.953125q0.109375 0.609375 0.4375 1.171875l-1.75 0q-0.265625 -0.515625 -0.328125 -1.21875zm-0.140625 -3.71875q-0.90625 0.359375 -2.734375 0.625q-1.03125 0.140625 -1.453125 0.328125q-0.421875 0.1875 -0.65625 0.546875q-0.234375 0.359375 -0.234375 0.796875q0 0.671875 0.5 1.125q0.515625 0.4375 1.484375 0.4375q0.96875 0 1.71875 -0.421875q0.75 -0.4375 1.109375 -1.15625q0.265625 -0.578125 0.265625 -1.671875l0 -0.609375zm4.0788574 4.9375l0 -9.859375l1.5 0l0 1.40625q1.09375 -1.625 3.140625 -1.625q0.890625 0 1.640625 0.328125q0.75 0.3125 1.109375 0.84375q0.375 0.515625 0.53125 1.21875q0.09375 0.46875 0.09375 1.625l0 6.0625l-1.671875 0l0 -6.0q0 -1.015625 -0.203125 -1.515625q-0.1875 -0.515625 -0.6875 -0.8125q-0.5 -0.296875 -1.171875 -0.296875q-1.0625 0 -1.84375 0.671875q-0.765625 0.671875 -0.765625 2.578125l0 5.375l-1.671875 0zm9.703857 -2.9375l1.65625 -0.265625q0.140625 1.0 0.765625 1.53125q0.640625 0.515625 1.78125 0.515625q1.15625 0 1.703125 -0.46875q0.5625 -0.46875 0.5625 -1.09375q0 -0.5625 -0.484375 -0.890625q-0.34375 -0.21875 -1.703125 -0.5625q-1.84375 -0.46875 -2.5625 -0.796875q-0.703125 -0.34375 -1.078125 -0.9375q-0.359375 -0.609375 -0.359375 -1.328125q0 -0.65625 0.296875 -1.21875q0.3125 -0.5625 0.828125 -0.9375q0.390625 -0.28125 1.0625 -0.484375q0.671875 -0.203125 1.4375 -0.203125q1.171875 0 2.046875 0.34375q0.875 0.328125 1.28125 0.90625q0.421875 0.5625 0.578125 1.515625l-1.625 0.21875q-0.109375 -0.75 -0.65625 -1.171875q-0.53125 -0.4375 -1.5 -0.4375q-1.15625 0 -1.640625 0.390625q-0.484375 0.375 -0.484375 0.875q0 0.328125 0.203125 0.59375q0.203125 0.265625 0.640625 0.4375q0.25 0.09375 1.46875 0.4375q1.765625 0.46875 2.46875 0.765625q0.703125 0.296875 1.09375 0.875q0.40625 0.578125 0.40625 1.4375q0 0.828125 -0.484375 1.578125q-0.484375 0.734375 -1.40625 1.140625q-0.921875 0.390625 -2.078125 0.390625q-1.921875 0 -2.9375 -0.796875q-1.0 -0.796875 -1.28125 -2.359375zm10.40625 2.9375l0 -8.546875l-1.484375 0l0 -1.3125l1.484375 0l0 -1.046875q0 -0.984375 0.171875 -1.46875q0.234375 -0.65625 0.84375 -1.046875q0.609375 -0.40625 1.703125 -0.40625q0.703125 0 1.5625 0.15625l-0.25 1.46875q-0.515625 -0.09375 -0.984375 -0.09375q-0.765625 0 -1.078125 0.328125q-0.3125 0.3125 -0.3125 1.203125l0 0.90625l1.921875 0l0 1.3125l-1.921875 0l0 8.546875l-1.65625 0zm4.1520386 -4.921875q0 -2.734375 1.53125 -4.0625q1.265625 -1.09375 3.09375 -1.09375q2.03125 0 3.3125 1.34375q1.296875 1.328125 1.296875 3.671875q0 1.90625 -0.578125 3.0q-0.5625 1.078125 -1.65625 1.6875q-1.078125 0.59375 -2.375 0.59375q-2.0625 0 -3.34375 -1.328125q-1.28125 -1.328125 -1.28125 -3.8125zm1.71875 0q0 1.890625 0.828125 2.828125q0.828125 0.9375 2.078125 0.9375q1.25 0 2.0625 -0.9375q0.828125 -0.953125 0.828125 -2.890625q0 -1.828125 -0.828125 -2.765625q-0.828125 -0.9375 -2.0625 -0.9375q-1.25 0 -2.078125 0.9375q-0.828125 0.9375 -0.828125 2.828125zm9.266357 4.921875l0 -9.859375l1.5 0l0 1.5q0.578125 -1.046875 1.0625 -1.375q0.484375 -0.34375 1.078125 -0.34375q0.84375 0 1.71875 0.546875l-0.578125 1.546875q-0.609375 -0.359375 -1.234375 -0.359375q-0.546875 0 -0.984375 0.328125q-0.421875 0.328125 -0.609375 0.90625q-0.28125 0.890625 -0.28125 1.953125l0 5.15625l-1.671875 0zm6.2282715 0l0 -9.859375l1.5 0l0 1.390625q0.453125 -0.71875 1.21875 -1.15625q0.78125 -0.453125 1.765625 -0.453125q1.09375 0 1.796875 0.453125q0.703125 0.453125 0.984375 1.28125q1.171875 -1.734375 3.046875 -1.734375q1.46875 0 2.25 0.8125q0.796875 0.8125 0.796875 2.5l0 6.765625l-1.671875 0l0 -6.203125q0 -1.0 -0.15625 -1.4375q-0.15625 -0.453125 -0.59375 -0.71875q-0.421875 -0.265625 -1.0 -0.265625q-1.03125 0 -1.71875 0.6875q-0.6875 0.6875 -0.6875 2.21875l0 5.71875l-1.671875 0l0 -6.40625q0 -1.109375 -0.40625 -1.65625q-0.40625 -0.5625 -1.34375 -0.5625q-0.703125 0 -1.3125 0.375q-0.59375 0.359375 -0.859375 1.078125q-0.265625 0.71875 -0.265625 2.0625l0 5.109375l-1.671875 0zm22.290833 -3.171875l1.71875 0.21875q-0.40625 1.5 -1.515625 2.34375q-1.09375 0.828125 -2.8125 0.828125q-2.15625 0 -3.421875 -1.328125q-1.265625 -1.328125 -1.265625 -3.734375q0 -2.484375 1.265625 -3.859375q1.28125 -1.375 3.328125 -1.375q1.984375 0 3.234375 1.34375q1.25 1.34375 1.25 3.796875q0 0.140625 -0.015625 0.4375l-7.34375 0q0.09375 1.625 0.921875 2.484375q0.828125 0.859375 2.0625 0.859375q0.90625 0 1.546875 -0.46875q0.65625 -0.484375 1.046875 -1.546875zm-5.484375 -2.703125l5.5 0q-0.109375 -1.234375 -0.625 -1.859375q-0.796875 -0.96875 -2.078125 -0.96875q-1.140625 0 -1.9375 0.78125q-0.78125 0.765625 -0.859375 2.046875zm9.094482 5.875l0 -9.859375l1.5 0l0 1.5q0.578125 -1.046875 1.0625 -1.375q0.484375 -0.34375 1.078125 -0.34375q0.84375 0 1.71875 0.546875l-0.578125 1.546875q-0.609375 -0.359375 -1.234375 -0.359375q-0.546875 0 -0.984375 0.328125q-0.421875 0.328125 -0.609375 0.90625q-0.28125 0.890625 -0.28125 1.953125l0 5.15625l-1.671875 0z"
       fill-rule="nonzero"
       id="path65" />
    <path
       fill="#000000"
       fill-opacity="0.0"
       d="m612.50397 61.0l2.4881592 381.00787"
       fill-rule="nonzero"
       id="path67" />
    <path
       stroke="#000000"
       stroke-width="2.0"
       stroke-linejoin="round"
       stroke-linecap="butt"
       stroke-dasharray="8.0,6.0"
       d="m612.50397 61.0l2.4881592 381.00787"
       fill-rule="nonzero"
       id="path69" />
    <path
       fill="#000000"
       fill-opacity="0.0"
       d="m260.0 310.0l349.00787 1.0078735"
       fill-rule="nonzero"
       id="path71" />
    <path
       stroke="#000000"
       stroke-width="2.0"
       stroke-linejoin="round"
       stroke-linecap="butt"
       d="m260.0 310.0l337.00793 0.97320557"
       fill-rule="evenodd"
       id="path73" />
    <path
       fill="#000000"
       stroke="#000000"
       stroke-width="2.0"
       stroke-linecap="butt"
       d="m596.9984 314.27667l9.085693 -3.2772522l-9.06665 -3.3296509z"
       fill-rule="evenodd"
       id="path75" />
    <path
       fill="#000000"
       fill-opacity="0.0"
       d="m442.0 286.0l161.51178 0l0 29.007874l-161.51178 0z"
       fill-rule="nonzero"
       id="path77" />
    <path
       fill="#000000"
       d="m488.6089 305.21017q-0.375 0.09375 -0.78125 0.140625q-0.390625 0.046875 -0.8125 0.046875q-1.203125 0 -1.796875 -0.546875q-0.578125 -0.546875 -0.578125 -1.671875l0 -3.328125l-1.78125 0l0 -0.921875l1.78125 0l0 -1.75l1.09375 -0.28125l0 2.03125l2.875 0l0 0.921875l-2.875 0l0 3.25q0 0.671875 0.359375 1.015625q0.375 0.34375 1.09375 0.34375q0.296875 0 0.65625 -0.046875q0.359375 -0.046875 0.765625 -0.15625l0 0.953125zm2.4528809 -6.28125l1.0 0l0.03125 1.171875q0.5625 -0.671875 1.109375 -0.96875q0.5625 -0.3125 1.109375 -0.3125q1.0 0 1.5 0.640625q0.515625 0.640625 0.484375 1.90625l-1.125 0q0.03125 -0.84375 -0.234375 -1.21875q-0.265625 -0.375 -0.78125 -0.375q-0.21875 0 -0.453125 0.078125q-0.21875 0.078125 -0.453125 0.25q-0.234375 0.171875 -0.5 0.453125q-0.265625 0.265625 -0.578125 0.65625l0 4.09375l-1.109375 0l0 -6.375zm11.155975 6.375l-0.03125 -0.859375q-0.515625 0.515625 -1.0625 0.75q-0.53125 0.21875 -1.109375 0.21875q-0.546875 0 -0.9375 -0.140625q-0.390625 -0.140625 -0.640625 -0.375q-0.25 -0.25 -0.375 -0.578125q-0.109375 -0.328125 -0.109375 -0.71875q0 -0.953125 0.703125 -1.5q0.71875 -0.546875 2.125 -0.546875l1.3125 0l0 -0.546875q0 -0.578125 -0.359375 -0.90625q-0.359375 -0.34375 -1.109375 -0.34375q-0.53125 0 -1.0625 0.125q-0.515625 0.109375 -1.078125 0.34375l0 -1.0q0.21875 -0.078125 0.46875 -0.140625q0.25 -0.078125 0.53125 -0.140625q0.296875 -0.0625 0.609375 -0.09375q0.3125 -0.03125 0.625 -0.03125q0.578125 0 1.03125 0.125q0.46875 0.125 0.78125 0.390625q0.328125 0.25 0.5 0.65625q0.171875 0.390625 0.171875 0.921875l0 4.390625l-0.984375 0zm-0.125 -2.90625l-1.390625 0q-0.421875 0 -0.71875 0.09375q-0.296875 0.078125 -0.484375 0.234375q-0.1875 0.140625 -0.28125 0.359375q-0.09375 0.21875 -0.09375 0.484375q0 0.171875 0.046875 0.34375q0.0625 0.171875 0.1875 0.3125q0.125 0.125 0.328125 0.203125q0.203125 0.0625 0.5 0.0625q0.375 0 0.859375 -0.21875q0.5 -0.234375 1.046875 -0.734375l0 -1.140625zm3.3591309 -3.46875l0.984375 0l0.046875 1.03125q0.28125 -0.328125 0.53125 -0.546875q0.265625 -0.21875 0.515625 -0.34375q0.25 -0.140625 0.5 -0.1875q0.265625 -0.0625 0.546875 -0.0625q0.984375 0 1.484375 0.578125q0.515625 0.578125 0.515625 1.75l0 4.15625l-1.109375 0l0 -4.0625q0 -0.75 -0.28125 -1.109375q-0.28125 -0.359375 -0.828125 -0.359375q-0.203125 0 -0.40625 0.0625q-0.1875 0.046875 -0.40625 0.203125q-0.203125 0.15625 -0.453125 0.40625q-0.234375 0.25 -0.53125 0.625l0 4.234375l-1.109375 0l0 -6.375zm12.374725 4.640625q0 0.328125 -0.125 0.59375q-0.109375 0.265625 -0.3125 0.484375q-0.1875 0.203125 -0.453125 0.34375q-0.25 0.140625 -0.546875 0.25q-0.296875 0.09375 -0.609375 0.125q-0.3125 0.046875 -0.609375 0.046875q-0.640625 0 -1.1875 -0.0625q-0.546875 -0.046875 -1.0625 -0.171875l0 -1.015625q0.5625 0.15625 1.109375 0.25q0.546875 0.078125 1.09375 0.078125q0.796875 0 1.171875 -0.21875q0.390625 -0.21875 0.390625 -0.625q0 -0.171875 -0.0625 -0.296875q-0.0625 -0.140625 -0.21875 -0.265625q-0.15625 -0.125 -0.5 -0.25q-0.328125 -0.140625 -0.90625 -0.3125q-0.421875 -0.125 -0.796875 -0.28125q-0.359375 -0.171875 -0.625 -0.390625q-0.265625 -0.21875 -0.421875 -0.515625q-0.15625 -0.296875 -0.15625 -0.703125q0 -0.265625 0.125 -0.578125q0.125 -0.328125 0.421875 -0.59375q0.296875 -0.28125 0.796875 -0.453125q0.515625 -0.1875 1.28125 -0.1875q0.375 0 0.828125 0.046875q0.453125 0.03125 0.953125 0.140625l0 0.984375q-0.515625 -0.140625 -0.984375 -0.1875q-0.46875 -0.0625 -0.8125 -0.0625q-0.40625 0 -0.6875 0.0625q-0.28125 0.0625 -0.46875 0.171875q-0.171875 0.109375 -0.25 0.265625q-0.0625 0.140625 -0.0625 0.3125q0 0.171875 0.0625 0.3125q0.0625 0.140625 0.234375 0.28125q0.1875 0.125 0.515625 0.25q0.328125 0.125 0.84375 0.28125q0.5625 0.171875 0.953125 0.359375q0.390625 0.171875 0.625 0.390625q0.25 0.21875 0.34375 0.5q0.109375 0.28125 0.109375 0.640625zm7.937256 -6.203125q-0.875 -0.1875 -1.5 -0.1875q-1.484375 0 -1.484375 1.5625l0 1.109375l2.78125 0l0 0.921875l-2.78125 0l0 4.53125l-1.125 0l0 -4.53125l-2.046875 0l0 -0.921875l2.046875 0l0 -1.046875q0 -2.546875 2.65625 -2.546875q0.65625 0 1.453125 0.15625l0 0.953125zm-6.671875 1.5625l0 0zm13.890381 3.140625q0 0.734375 -0.21875 1.359375q-0.203125 0.625 -0.59375 1.0625q-0.390625 0.4375 -0.953125 0.6875q-0.5625 0.234375 -1.28125 0.234375q-0.6875 0 -1.234375 -0.203125q-0.546875 -0.21875 -0.921875 -0.625q-0.375 -0.421875 -0.578125 -1.03125q-0.203125 -0.609375 -0.203125 -1.40625q0 -0.734375 0.203125 -1.34375q0.21875 -0.609375 0.609375 -1.046875q0.40625 -0.453125 0.96875 -0.6875q0.5625 -0.25 1.28125 -0.25q0.6875 0 1.21875 0.21875q0.546875 0.203125 0.921875 0.609375q0.375 0.40625 0.578125 1.015625q0.203125 0.609375 0.203125 1.40625zm-1.125 0.046875q0 -0.59375 -0.140625 -1.03125q-0.125 -0.4375 -0.375 -0.734375q-0.234375 -0.296875 -0.578125 -0.4375q-0.34375 -0.15625 -0.765625 -0.15625q-0.5 0 -0.859375 0.203125q-0.34375 0.1875 -0.578125 0.515625q-0.21875 0.3125 -0.328125 0.75q-0.09375 0.421875 -0.09375 0.890625q0 0.59375 0.125 1.046875q0.125 0.4375 0.359375 0.734375q0.25 0.28125 0.59375 0.4375q0.34375 0.15625 0.78125 0.15625q0.484375 0 0.84375 -0.1875q0.359375 -0.203125 0.578125 -0.53125q0.21875 -0.328125 0.328125 -0.75q0.109375 -0.421875 0.109375 -0.90625zm3.1715698 -3.1875l1.0 0l0.03125 1.171875q0.5625 -0.671875 1.109375 -0.96875q0.5625 -0.3125 1.109375 -0.3125q1.0 0 1.5 0.640625q0.515625 0.640625 0.484375 1.90625l-1.125 0q0.03125 -0.84375 -0.234375 -1.21875q-0.265625 -0.375 -0.78125 -0.375q-0.21875 0 -0.453125 0.078125q-0.21875 0.078125 -0.453125 0.25q-0.234375 0.171875 -0.5 0.453125q-0.265625 0.265625 -0.578125 0.65625l0 4.09375l-1.109375 0l0 -6.375zm11.609131 6.375l0 -4.578125q0 -0.296875 -0.03125 -0.484375q-0.015625 -0.1875 -0.0625 -0.296875q-0.046875 -0.125 -0.125 -0.15625q-0.0625 -0.046875 -0.171875 -0.046875q-0.125 0 -0.234375 0.078125q-0.109375 0.0625 -0.234375 0.234375q-0.125 0.171875 -0.28125 0.46875q-0.140625 0.28125 -0.34375 0.6875l0 4.09375l-1.015625 0l0 -4.453125q0 -0.359375 -0.03125 -0.5625q-0.015625 -0.21875 -0.0625 -0.34375q-0.046875 -0.125 -0.125 -0.15625q-0.0625 -0.046875 -0.171875 -0.046875q-0.125 0 -0.234375 0.0625q-0.09375 0.0625 -0.21875 0.234375q-0.125 0.15625 -0.28125 0.453125q-0.140625 0.28125 -0.34375 0.71875l0 4.09375l-1.015625 0l0 -6.375l0.84375 0l0.046875 1.21875q0.15625 -0.359375 0.3125 -0.609375q0.15625 -0.265625 0.3125 -0.421875q0.171875 -0.15625 0.359375 -0.21875q0.1875 -0.078125 0.421875 -0.078125q0.515625 0 0.78125 0.34375q0.265625 0.328125 0.265625 1.03125q0.15625 -0.328125 0.296875 -0.578125q0.15625 -0.265625 0.3125 -0.4375q0.171875 -0.171875 0.375 -0.265625q0.203125 -0.09375 0.46875 -0.09375q1.203125 0 1.203125 1.84375l0 4.640625l-1.015625 0zm6.593506 2.671875q-2.921875 -2.71875 -2.921875 -6.0q0 -0.765625 0.15625 -1.53125q0.15625 -0.765625 0.5 -1.53125q0.34375 -0.765625 0.90625 -1.53125q0.578125 -0.78125 1.390625 -1.53125l0.640625 0.65625q-2.46875 2.4375 -2.46875 5.390625q0 1.46875 0.625 2.828125q0.625 1.359375 1.84375 2.5625l-0.671875 0.6875zm4.812256 -12.125q2.9375 2.71875 2.9375 6.03125q0 0.6875 -0.140625 1.421875q-0.140625 0.734375 -0.484375 1.515625q-0.328125 0.765625 -0.90625 1.546875q-0.5625 0.796875 -1.421875 1.609375l-0.640625 -0.65625q1.234375 -1.234375 1.84375 -2.5625q0.609375 -1.328125 0.609375 -2.796875q0 -3.015625 -2.453125 -5.421875l0.65625 -0.6875z"
       fill-rule="nonzero"
       id="path79" />
    <path
       fill="#000000"
       fill-opacity="0.0"
       d="m266.5013 331.0l344.50394 1.0078735"
       fill-rule="nonzero"
       id="path81" />
    <path
       stroke="#000000"
       stroke-width="2.0"
       stroke-linejoin="round"
       stroke-linecap="butt"
       stroke-dasharray="2.0,6.0"
       d="m278.50125 331.0351l332.504 0.9727783"
       fill-rule="evenodd"
       id="path83" />
    <path
       fill="#000000"
       stroke="#000000"
       stroke-width="2.0"
       stroke-linecap="butt"
       d="m278.51093 327.73166l-9.085815 3.276886l9.066498 3.330017z"
       fill-rule="evenodd"
       id="path85" />
    <path
       fill="#000000"
       fill-opacity="0.0"
       d="m260.0 374.0l176.50394 1.0078735"
       fill-rule="nonzero"
       id="path87" />
    <path
       stroke="#000000"
       stroke-width="2.0"
       stroke-linejoin="round"
       stroke-linecap="butt"
       d="m260.0 374.0l164.50415 0.93933105"
       fill-rule="evenodd"
       id="path89" />
    <path
       fill="#000000"
       stroke="#000000"
       stroke-width="2.0"
       stroke-linecap="butt"
       d="m424.48526 378.24277l9.09491 -3.251587l-9.057159 -3.3552246z"
       fill-rule="evenodd"
       id="path91" />
    <path
       fill="#000000"
       fill-opacity="0.0"
       d="m306.0 344.99213l77.98425 0l0 29.007874l-77.98425 0z"
       fill-rule="nonzero"
       id="path93" />
    <path
       fill="#000000"
       d="m325.4071 362.56168q0 0.328125 -0.125 0.59375q-0.109375 0.265625 -0.3125 0.484375q-0.1875 0.203125 -0.453125 0.34375q-0.25 0.140625 -0.546875 0.25q-0.296875 0.09375 -0.609375 0.125q-0.3125 0.046875 -0.609375 0.046875q-0.640625 0 -1.1875 -0.0625q-0.546875 -0.046875 -1.0625 -0.171875l0 -1.015625q0.5625 0.15625 1.109375 0.25q0.546875 0.078125 1.09375 0.078125q0.796875 0 1.171875 -0.21875q0.390625 -0.21875 0.390625 -0.625q0 -0.171875 -0.0625 -0.296875q-0.0625 -0.140625 -0.21875 -0.265625q-0.15625 -0.125 -0.5 -0.25q-0.328125 -0.140625 -0.90625 -0.3125q-0.421875 -0.125 -0.796875 -0.28125q-0.359375 -0.171875 -0.625 -0.390625q-0.265625 -0.21875 -0.421875 -0.515625q-0.15625 -0.296875 -0.15625 -0.703125q0 -0.265625 0.125 -0.578125q0.125 -0.328125 0.421875 -0.59375q0.296875 -0.28125 0.796875 -0.453125q0.515625 -0.1875 1.28125 -0.1875q0.375 0 0.828125 0.046875q0.453125 0.03125 0.953125 0.140625l0 0.984375q-0.515625 -0.140625 -0.984375 -0.1875q-0.46875 -0.0625 -0.8125 -0.0625q-0.40625 0 -0.6875 0.0625q-0.28125 0.0625 -0.46875 0.171875q-0.171875 0.109375 -0.25 0.265625q-0.0625 0.140625 -0.0625 0.3125q0 0.171875 0.0625 0.3125q0.0625 0.140625 0.234375 0.28125q0.1875 0.125 0.515625 0.25q0.328125 0.125 0.84375 0.28125q0.5625 0.171875 0.953125 0.359375q0.390625 0.171875 0.625 0.390625q0.25 0.21875 0.34375 0.5q0.109375 0.28125 0.109375 0.640625zm7.4216003 1.640625q-0.375 0.09375 -0.78125 0.140625q-0.390625 0.046875 -0.8125 0.046875q-1.203125 0 -1.796875 -0.546875q-0.578125 -0.546875 -0.578125 -1.671875l0 -3.328125l-1.78125 0l0 -0.921875l1.78125 0l0 -1.75l1.09375 -0.28125l0 2.03125l2.875 0l0 0.921875l-2.875 0l0 3.25q0 0.671875 0.359375 1.015625q0.375 0.34375 1.09375 0.34375q0.296875 0 0.65625 -0.046875q0.359375 -0.046875 0.765625 -0.15625l0 0.953125zm7.734131 -3.140625q0 0.734375 -0.21875 1.359375q-0.203125 0.625 -0.59375 1.0625q-0.390625 0.4375 -0.953125 0.6875q-0.5625 0.234375 -1.28125 0.234375q-0.6875 0 -1.234375 -0.203125q-0.546875 -0.21875 -0.921875 -0.625q-0.375 -0.421875 -0.578125 -1.03125q-0.203125 -0.609375 -0.203125 -1.40625q0 -0.734375 0.203125 -1.34375q0.21875 -0.609375 0.609375 -1.046875q0.40625 -0.453125 0.96875 -0.6875q0.5625 -0.25 1.28125 -0.25q0.6875 0 1.21875 0.21875q0.546875 0.203125 0.921875 0.609375q0.375 0.40625 0.578125 1.015625q0.203125 0.609375 0.203125 1.40625zm-1.125 0.046875q0 -0.59375 -0.140625 -1.03125q-0.125 -0.4375 -0.375 -0.734375q-0.234375 -0.296875 -0.578125 -0.4375q-0.34375 -0.15625 -0.765625 -0.15625q-0.5 0 -0.859375 0.203125q-0.34375 0.1875 -0.578125 0.515625q-0.21875 0.3125 -0.328125 0.75q-0.09375 0.421875 -0.09375 0.890625q0 0.59375 0.125 1.046875q0.125 0.4375 0.359375 0.734375q0.25 0.28125 0.59375 0.4375q0.34375 0.15625 0.78125 0.15625q0.484375 0 0.84375 -0.1875q0.359375 -0.203125 0.578125 -0.53125q0.21875 -0.328125 0.328125 -0.75q0.109375 -0.421875 0.109375 -0.90625zm3.1716003 -3.1875l1.0 0l0.03125 1.171875q0.5625 -0.671875 1.109375 -0.96875q0.5625 -0.3125 1.109375 -0.3125q1.0 0 1.5 0.640625q0.515625 0.640625 0.484375 1.90625l-1.125 0q0.03125 -0.84375 -0.234375 -1.21875q-0.265625 -0.375 -0.78125 -0.375q-0.21875 0 -0.453125 0.078125q-0.21875 0.078125 -0.453125 0.25q-0.234375 0.171875 -0.5 0.453125q-0.265625 0.265625 -0.578125 0.65625l0 4.09375l-1.109375 0l0 -6.375zm12.452881 2.859375q0 0.234375 -0.015625 0.390625q0 0.15625 -0.015625 0.296875l-4.484375 0q0 0.96875 0.546875 1.5q0.546875 0.515625 1.578125 0.515625q0.28125 0 0.5625 -0.015625q0.28125 -0.015625 0.53125 -0.046875q0.265625 -0.046875 0.5 -0.09375q0.25 -0.046875 0.453125 -0.109375l0 0.90625q-0.453125 0.125 -1.03125 0.203125q-0.5625 0.078125 -1.171875 0.078125q-0.8125 0 -1.40625 -0.21875q-0.59375 -0.21875 -0.96875 -0.640625q-0.375 -0.421875 -0.5625 -1.03125q-0.171875 -0.625 -0.171875 -1.390625q0 -0.671875 0.1875 -1.265625q0.1875 -0.609375 0.5625 -1.0625q0.375 -0.453125 0.90625 -0.71875q0.546875 -0.265625 1.234375 -0.265625q0.65625 0 1.171875 0.21875q0.515625 0.203125 0.859375 0.59375q0.359375 0.375 0.546875 0.921875q0.1875 0.546875 0.1875 1.234375zm-1.15625 -0.171875q0.015625 -0.421875 -0.09375 -0.765625q-0.09375 -0.359375 -0.3125 -0.609375q-0.203125 -0.25 -0.53125 -0.390625q-0.3125 -0.15625 -0.71875 -0.15625q-0.375 0 -0.671875 0.140625q-0.296875 0.140625 -0.515625 0.40625q-0.203125 0.25 -0.34375 0.609375q-0.125 0.34375 -0.171875 0.765625l3.359375 0zm6.9059753 6.359375q-2.921875 -2.71875 -2.921875 -6.0q0 -0.765625 0.15625 -1.53125q0.15625 -0.765625 0.5 -1.53125q0.34375 -0.765625 0.90625 -1.53125q0.578125 -0.78125 1.390625 -1.53125l0.640625 0.65625q-2.46875 2.4375 -2.46875 5.390625q0 1.46875 0.625 2.828125q0.625 1.359375 1.84375 2.5625l-0.671875 0.6875zm4.812256 -12.125q2.9375 2.71875 2.9375 6.03125q0 0.6875 -0.140625 1.421875q-0.140625 0.734375 -0.484375 1.515625q-0.328125 0.765625 -0.90625 1.546875q-0.5625 0.796875 -1.421875 1.609375l-0.640625 -0.65625q1.234375 -1.234375 1.84375 -2.5625q0.609375 -1.328125 0.609375 -2.796875q0 -3.015625 -2.453125 -5.421875l0.65625 -0.6875z"
       fill-rule="nonzero"
       id="path95" />
    <path
       fill="#000000"
       fill-opacity="0.0"
       d="m160.0 214.50394l100.0 -1.0078735"
       fill-rule="nonzero"
       id="path97" />
    <path
       stroke="#000000"
       stroke-width="2.0"
       stroke-linejoin="round"
       stroke-linecap="butt"
       stroke-dasharray="2.0,6.0"
       d="m171.99939 214.383l88.00061 -0.8869324"
       fill-rule="evenodd"
       id="path99" />
    <path
       fill="#000000"
       stroke="#000000"
       stroke-width="2.0"
       stroke-linecap="butt"
       d="m171.9661 211.0797l-9.042435 3.3947754l9.109024 3.2118225z"
       fill-rule="evenodd"
       id="path101" />
    <path
       fill="#000000"
       fill-opacity="0.0"
       d="m160.0 182.0l77.98425 0l0 29.007874l-77.98425 0z"
       fill-rule="nonzero"
       id="path103" />
    <path
       fill="#000000"
       d="m194.40659 201.30394l-5.46875 0l0 -0.984375l2.140625 -2.140625q0.53125 -0.515625 0.859375 -0.890625q0.328125 -0.390625 0.515625 -0.703125q0.1875 -0.3125 0.25 -0.59375q0.0625 -0.28125 0.0625 -0.609375q0 -0.296875 -0.09375 -0.5625q-0.078125 -0.28125 -0.25 -0.484375q-0.171875 -0.21875 -0.453125 -0.34375q-0.265625 -0.125 -0.640625 -0.125q-0.53125 0 -0.96875 0.234375q-0.421875 0.234375 -0.78125 0.609375l-0.609375 -0.71875q0.46875 -0.5 1.078125 -0.796875q0.609375 -0.296875 1.421875 -0.296875q0.5625 0 1.015625 0.171875q0.453125 0.15625 0.78125 0.46875q0.328125 0.3125 0.5 0.765625q0.1875 0.4375 0.1875 1.0q0 0.484375 -0.125 0.890625q-0.125 0.40625 -0.390625 0.8125q-0.25 0.40625 -0.640625 0.84375q-0.390625 0.421875 -0.921875 0.9375l-1.5 1.46875l4.03125 0l0 1.046875zm7.5153503 -4.140625q0 0.953125 -0.203125 1.734375q-0.1875 0.78125 -0.578125 1.34375q-0.375 0.5625 -0.953125 0.875q-0.578125 0.296875 -1.34375 0.296875q-0.671875 0 -1.21875 -0.25q-0.546875 -0.25 -0.9375 -0.765625q-0.375 -0.515625 -0.59375 -1.328125q-0.203125 -0.8125 -0.203125 -1.90625q0 -0.953125 0.1875 -1.734375q0.203125 -0.796875 0.578125 -1.359375q0.390625 -0.5625 0.96875 -0.859375q0.578125 -0.3125 1.34375 -0.3125q0.65625 0 1.203125 0.25q0.546875 0.25 0.9375 0.78125q0.390625 0.515625 0.59375 1.328125q0.21875 0.796875 0.21875 1.90625zm-1.125 0.03125q0 -0.21875 -0.015625 -0.421875q-0.015625 -0.21875 -0.03125 -0.421875l-3.515625 2.609375q0.09375 0.328125 0.234375 0.609375q0.15625 0.28125 0.359375 0.484375q0.203125 0.203125 0.46875 0.3125q0.265625 0.109375 0.609375 0.109375q0.421875 0 0.765625 -0.203125q0.359375 -0.21875 0.609375 -0.625q0.25 -0.421875 0.375 -1.03125q0.140625 -0.609375 0.140625 -1.421875zm-3.796875 -0.078125q0 0.203125 0 0.40625q0.015625 0.1875 0.03125 0.375l3.515625 -2.59375q-0.109375 -0.328125 -0.25 -0.59375q-0.140625 -0.265625 -0.34375 -0.453125q-0.203125 -0.203125 -0.46875 -0.3125q-0.265625 -0.109375 -0.578125 -0.109375q-0.4375 0 -0.796875 0.21875q-0.34375 0.203125 -0.59375 0.625q-0.25 0.40625 -0.390625 1.03125q-0.125 0.609375 -0.125 1.40625zm12.249756 0.046875q0 0.953125 -0.203125 1.734375q-0.1875 0.78125 -0.578125 1.34375q-0.375 0.5625 -0.953125 0.875q-0.578125 0.296875 -1.34375 0.296875q-0.671875 0 -1.21875 -0.25q-0.546875 -0.25 -0.9375 -0.765625q-0.375 -0.515625 -0.59375 -1.328125q-0.203125 -0.8125 -0.203125 -1.90625q0 -0.953125 0.1875 -1.734375q0.203125 -0.796875 0.578125 -1.359375q0.390625 -0.5625 0.96875 -0.859375q0.578125 -0.3125 1.34375 -0.3125q0.65625 0 1.203125 0.25q0.546875 0.25 0.9375 0.78125q0.390625 0.515625 0.59375 1.328125q0.21875 0.796875 0.21875 1.90625zm-1.125 0.03125q0 -0.21875 -0.015625 -0.421875q-0.015625 -0.21875 -0.03125 -0.421875l-3.515625 2.609375q0.09375 0.328125 0.234375 0.609375q0.15625 0.28125 0.359375 0.484375q0.203125 0.203125 0.46875 0.3125q0.265625 0.109375 0.609375 0.109375q0.421875 0 0.765625 -0.203125q0.359375 -0.21875 0.609375 -0.625q0.25 -0.421875 0.375 -1.03125q0.140625 -0.609375 0.140625 -1.421875zm-3.796875 -0.078125q0 0.203125 0 0.40625q0.015625 0.1875 0.03125 0.375l3.515625 -2.59375q-0.109375 -0.328125 -0.25 -0.59375q-0.140625 -0.265625 -0.34375 -0.453125q-0.203125 -0.203125 -0.46875 -0.3125q-0.265625 -0.109375 -0.578125 -0.109375q-0.4375 0 -0.796875 0.21875q-0.34375 0.203125 -0.59375 0.625q-0.25 0.40625 -0.390625 1.03125q-0.125 0.609375 -0.125 1.40625z"
       fill-rule="nonzero"
       id="path105" />
    <path
       fill="#000000"
       fill-opacity="0.0"
       d="m260.0 182.0l178.48819 1.9842529"
       fill-rule="nonzero"
       id="path107" />
    <path
       stroke="#000000"
       stroke-width="2.0"
       stroke-linejoin="round"
       stroke-linecap="butt"
       d="m260.0 182.0l166.48892 1.8508606"
       fill-rule="evenodd"
       id="path109" />
    <path
       fill="#000000"
       stroke="#000000"
       stroke-width="2.0"
       stroke-linecap="butt"
       d="m426.4522 187.15411l9.112366 -3.202362l-9.03891 -3.4041595z"
       fill-rule="evenodd"
       id="path111" />
    <path
       fill="#000000"
       fill-opacity="0.0"
       d="m306.0 152.99213l77.98425 0l0 29.007874l-77.98425 0z"
       fill-rule="nonzero"
       id="path113" />
    <path
       fill="#000000"
       d="m325.4071 170.56169q0 0.328125 -0.125 0.59375q-0.109375 0.265625 -0.3125 0.484375q-0.1875 0.203125 -0.453125 0.34375q-0.25 0.140625 -0.546875 0.25q-0.296875 0.09375 -0.609375 0.125q-0.3125 0.046875 -0.609375 0.046875q-0.640625 0 -1.1875 -0.0625q-0.546875 -0.046875 -1.0625 -0.171875l0 -1.015625q0.5625 0.15625 1.109375 0.25q0.546875 0.078125 1.09375 0.078125q0.796875 0 1.171875 -0.21875q0.390625 -0.21875 0.390625 -0.625q0 -0.171875 -0.0625 -0.296875q-0.0625 -0.140625 -0.21875 -0.265625q-0.15625 -0.125 -0.5 -0.25q-0.328125 -0.140625 -0.90625 -0.3125q-0.421875 -0.125 -0.796875 -0.28125q-0.359375 -0.171875 -0.625 -0.390625q-0.265625 -0.21875 -0.421875 -0.515625q-0.15625 -0.296875 -0.15625 -0.703125q0 -0.265625 0.125 -0.578125q0.125 -0.328125 0.421875 -0.59375q0.296875 -0.28125 0.796875 -0.453125q0.515625 -0.1875 1.28125 -0.1875q0.375 0 0.828125 0.046875q0.453125 0.03125 0.953125 0.140625l0 0.984375q-0.515625 -0.140625 -0.984375 -0.1875q-0.46875 -0.0625 -0.8125 -0.0625q-0.40625 0 -0.6875 0.0625q-0.28125 0.0625 -0.46875 0.171875q-0.171875 0.109375 -0.25 0.265625q-0.0625 0.140625 -0.0625 0.3125q0 0.171875 0.0625 0.3125q0.0625 0.140625 0.234375 0.28125q0.1875 0.125 0.515625 0.25q0.328125 0.125 0.84375 0.28125q0.5625 0.171875 0.953125 0.359375q0.390625 0.171875 0.625 0.390625q0.25 0.21875 0.34375 0.5q0.109375 0.28125 0.109375 0.640625zm7.4216003 1.640625q-0.375 0.09375 -0.78125 0.140625q-0.390625 0.046875 -0.8125 0.046875q-1.203125 0 -1.796875 -0.546875q-0.578125 -0.546875 -0.578125 -1.671875l0 -3.328125l-1.78125 0l0 -0.921875l1.78125 0l0 -1.75l1.09375 -0.28125l0 2.03125l2.875 0l0 0.921875l-2.875 0l0 3.25q0 0.671875 0.359375 1.015625q0.375 0.34375 1.09375 0.34375q0.296875 0 0.65625 -0.046875q0.359375 -0.046875 0.765625 -0.15625l0 0.953125zm7.734131 -3.140625q0 0.734375 -0.21875 1.359375q-0.203125 0.625 -0.59375 1.0625q-0.390625 0.4375 -0.953125 0.6875q-0.5625 0.234375 -1.28125 0.234375q-0.6875 0 -1.234375 -0.203125q-0.546875 -0.21875 -0.921875 -0.625q-0.375 -0.421875 -0.578125 -1.03125q-0.203125 -0.609375 -0.203125 -1.40625q0 -0.734375 0.203125 -1.34375q0.21875 -0.609375 0.609375 -1.046875q0.40625 -0.453125 0.96875 -0.6875q0.5625 -0.25 1.28125 -0.25q0.6875 0 1.21875 0.21875q0.546875 0.203125 0.921875 0.609375q0.375 0.40625 0.578125 1.015625q0.203125 0.609375 0.203125 1.40625zm-1.125 0.046875q0 -0.59375 -0.140625 -1.03125q-0.125 -0.4375 -0.375 -0.734375q-0.234375 -0.296875 -0.578125 -0.4375q-0.34375 -0.15625 -0.765625 -0.15625q-0.5 0 -0.859375 0.203125q-0.34375 0.1875 -0.578125 0.515625q-0.21875 0.3125 -0.328125 0.75q-0.09375 0.421875 -0.09375 0.890625q0 0.59375 0.125 1.046875q0.125 0.4375 0.359375 0.734375q0.25 0.28125 0.59375 0.4375q0.34375 0.15625 0.78125 0.15625q0.484375 0 0.84375 -0.1875q0.359375 -0.203125 0.578125 -0.53125q0.21875 -0.328125 0.328125 -0.75q0.109375 -0.421875 0.109375 -0.90625zm3.1716003 -3.1875l1.0 0l0.03125 1.171875q0.5625 -0.671875 1.109375 -0.96875q0.5625 -0.3125 1.109375 -0.3125q1.0 0 1.5 0.640625q0.515625 0.640625 0.484375 1.90625l-1.125 0q0.03125 -0.84375 -0.234375 -1.21875q-0.265625 -0.375 -0.78125 -0.375q-0.21875 0 -0.453125 0.078125q-0.21875 0.078125 -0.453125 0.25q-0.234375 0.171875 -0.5 0.453125q-0.265625 0.265625 -0.578125 0.65625l0 4.09375l-1.109375 0l0 -6.375zm12.452881 2.859375q0 0.234375 -0.015625 0.390625q0 0.15625 -0.015625 0.296875l-4.484375 0q0 0.96875 0.546875 1.5q0.546875 0.515625 1.578125 0.515625q0.28125 0 0.5625 -0.015625q0.28125 -0.015625 0.53125 -0.046875q0.265625 -0.046875 0.5 -0.09375q0.25 -0.046875 0.453125 -0.109375l0 0.90625q-0.453125 0.125 -1.03125 0.203125q-0.5625 0.078125 -1.171875 0.078125q-0.8125 0 -1.40625 -0.21875q-0.59375 -0.21875 -0.96875 -0.640625q-0.375 -0.421875 -0.5625 -1.03125q-0.171875 -0.625 -0.171875 -1.390625q0 -0.671875 0.1875 -1.265625q0.1875 -0.609375 0.5625 -1.0625q0.375 -0.453125 0.90625 -0.71875q0.546875 -0.265625 1.234375 -0.265625q0.65625 0 1.171875 0.21875q0.515625 0.203125 0.859375 0.59375q0.359375 0.375 0.546875 0.921875q0.1875 0.546875 0.1875 1.234375zm-1.15625 -0.171875q0.015625 -0.421875 -0.09375 -0.765625q-0.09375 -0.359375 -0.3125 -0.609375q-0.203125 -0.25 -0.53125 -0.390625q-0.3125 -0.15625 -0.71875 -0.15625q-0.375 0 -0.671875 0.140625q-0.296875 0.140625 -0.515625 0.40625q-0.203125 0.25 -0.34375 0.609375q-0.125 0.34375 -0.171875 0.765625l3.359375 0zm6.9059753 6.359375q-2.921875 -2.71875 -2.921875 -6.0q0 -0.765625 0.15625 -1.53125q0.15625 -0.765625 0.5 -1.53125q0.34375 -0.765625 0.90625 -1.53125q0.578125 -0.78125 1.390625 -1.53125l0.640625 0.65625q-2.46875 2.4375 -2.46875 5.390625q0 1.46875 0.625 2.828125q0.625 1.359375 1.84375 2.5625l-0.671875 0.6875zm4.812256 -12.125q2.9375 2.71875 2.9375 6.03125q0 0.6875 -0.140625 1.421875q-0.140625 0.734375 -0.484375 1.515625q-0.328125 0.765625 -0.90625 1.546875q-0.5625 0.796875 -1.421875 1.609375l-0.640625 -0.65625q1.234375 -1.234375 1.84375 -2.5625q0.609375 -1.328125 0.609375 -2.796875q0 -3.015625 -2.453125 -5.421875l0.65625 -0.6875z"
       fill-rule="nonzero"
       id="path115" />
    <path
       fill="#f3f3f3"
       d="m253.50131 224.0l10.992126 0l0 165.48032l-10.992126 0z"
       fill-rule="nonzero"
       id="path117" />
    <path
       stroke="#000000"
       stroke-width="2.0"
       stroke-linejoin="round"
       stroke-linecap="butt"
       d="m253.50131 224.0l10.992126 0l0 165.48032l-10.992126 0z"
       fill-rule="nonzero"
       id="path119" />
  </g>
</svg>
